# Blender 3.3.0
# www.blender.org
mtllib playerLettuce.mtl
o Plane
v -1.081073 -1.015266 -0.009054
v 1.115379 -1.116229 -0.004187
v -1.043056 1.112249 -0.035475
v 1.079563 1.146311 -0.013397
v -0.602586 -0.981121 -0.052254
v -0.054681 -1.052686 0.035530
v 0.505639 -1.012643 -0.076539
v 0.537927 1.171889 -0.016517
v 0.016620 1.146076 0.034145
v -0.548231 1.180215 -0.024750
v -1.069773 0.519867 -0.029217
v -1.087242 0.067108 -0.028051
v -1.095879 -0.475926 -0.019251
v 1.106478 -0.489103 -0.016603
v 1.078226 0.108173 -0.037617
v 1.101266 0.565366 -0.077324
v 1.099110 0.690274 -0.056760
v 1.133303 0.872368 -0.005377
v 1.047467 1.047416 0.001132
v -0.591431 0.705204 -0.008287
v -0.515615 0.928044 -0.005375
v -0.616995 1.051792 -0.085105
v -0.009491 0.765639 0.011565
v 0.025256 0.883371 -0.048916
v 0.070890 0.948008 -0.002701
v 0.541712 0.746225 -0.005368
v 0.550026 0.890084 -0.011752
v 0.485805 0.998012 0.029931
v -1.104696 1.021869 0.008362
v -1.053344 0.869262 -0.028268
v -1.094832 0.751285 -0.015974
v -1.134489 -0.663915 -0.026167
v -1.055256 -0.737270 -0.081182
v -1.038385 -0.834251 0.013677
v 1.087749 -0.903812 -0.043047
v 1.106494 -0.717529 -0.000933
v 1.100542 -0.624922 -0.027846
v -0.602460 -0.897415 -0.037434
v -0.552161 -0.789435 -0.042044
v -0.547339 -0.614067 -0.017478
v 0.060859 -0.824698 0.031251
v 0.000907 -0.752225 -0.017501
v 0.033608 -0.655901 -0.086461
v 0.616339 -0.837786 -0.005251
v 0.613276 -0.793778 0.023005
v 0.581994 -0.622571 0.021468
v 0.630201 -0.993826 -0.020428
v 0.781143 -1.048245 0.031423
v 0.958261 -1.023435 0.004483
v 1.026995 1.158260 0.010236
v 0.858446 1.108282 0.002375
v 0.671526 1.186416 0.045920
v 0.999454 -0.525824 -0.071426
v 0.885458 -0.484899 -0.027047
v 0.685873 -0.382463 -0.023684
v 0.951897 0.002931 0.039862
v 0.823884 0.055787 -0.018108
v 0.633352 0.088474 -0.010726
v 0.954337 0.618713 -0.018673
v 0.804362 0.584912 -0.064985
v 0.682156 0.562555 -0.048220
v 1.021721 0.786284 0.051570
v 0.878217 0.754562 -0.030018
v 0.719028 0.758556 -0.080789
v 1.030378 0.857007 0.001855
v 0.774581 0.927495 -0.026821
v 0.689048 0.910010 -0.025004
v 0.992004 1.082216 -0.032985
v 0.837065 1.064104 0.010089
v 0.733350 1.088514 -0.020813
v 0.999849 -0.845873 -0.049778
v 0.822398 -0.945743 -0.085887
v 0.720473 -0.868151 -0.013229
v 0.967440 -0.789637 -0.008154
v 0.787539 -0.762134 0.009531
v 0.677898 -0.671446 -0.019113
v 0.903187 -0.611180 -0.018529
v 0.787953 -0.575375 0.052915
v 0.638906 -0.651223 -0.006213
v -0.674720 1.207228 0.000529
v -0.803348 1.089028 -0.046833
v -0.952165 1.161886 -0.010420
v -0.863696 -0.982501 0.005190
v -0.810125 -1.019114 -0.014579
v -0.723394 -1.057906 -0.046816
v -0.774392 -0.522821 -0.004243
v -0.817917 -0.444279 -0.052342
v -0.886418 -0.559276 -0.006195
v -0.671912 0.044752 -0.004438
v -0.780756 0.103949 -0.008503
v -0.970742 0.060986 -0.011266
v -0.660235 0.709814 -0.029538
v -0.817113 0.635210 -0.010743
v -0.981662 0.618209 -0.031991
v -0.681477 0.782926 -0.020360
v -0.820836 0.722925 -0.008656
v -0.953092 0.679095 -0.027794
v -0.710662 0.858000 -0.027434
v -0.840492 0.861550 0.024662
v -0.948180 0.908449 -0.107764
v -0.710610 0.974148 0.016366
v -0.763257 0.983405 0.021447
v -0.976374 1.014344 -0.011614
v -0.624812 -0.859418 -0.034100
v -0.847194 -0.884959 -0.024440
v -0.954043 -0.837787 -0.038440
v -0.704810 -0.789585 0.034629
v -0.823925 -0.752410 -0.014617
v -0.963967 -0.749889 -0.034727
v -0.719410 -0.643554 -0.054507
v -0.758374 -0.631465 -0.042099
v -0.884323 -0.580340 0.003110
v -0.422564 -1.022970 -0.010854
v -0.305277 -1.063107 -0.071907
v -0.128388 -1.063293 -0.001242
v -0.123781 1.097145 -0.049791
v -0.262134 1.170711 -0.023422
v -0.423968 1.151672 -0.030325
v -0.197013 0.726691 -0.011582
v -0.268340 0.749133 -0.028117
v -0.417154 0.769089 -0.015506
v -0.150033 0.864201 -0.037004
v -0.272891 0.889090 -0.021099
v -0.415816 0.894158 -0.014844
v -0.090540 1.028371 0.059738
v -0.255168 1.026498 0.012928
v -0.398721 1.029443 0.016336
v -0.161727 -0.877490 0.005863
v -0.212923 -0.841551 -0.007673
v -0.417185 -0.903174 -0.026798
v -0.049256 -0.813739 -0.014849
v -0.316246 -0.722883 -0.019870
v -0.378159 -0.708857 -0.075277
v -0.202731 -0.626754 -0.050674
v -0.277935 -0.611285 -0.022108
v -0.401653 -0.613194 -0.015201
v 0.150543 -1.002519 -0.013700
v 0.282881 -1.012178 -0.039664
v 0.403831 -1.023134 -0.023659
v 0.336690 1.136031 -0.020732
v 0.265401 1.192757 -0.058663
v 0.163030 1.179726 -0.027339
v 0.417194 0.759354 -0.023338
v 0.280118 0.741445 -0.006009
v 0.037443 0.772111 -0.010962
v 0.418917 0.814469 -0.016332
v 0.222410 0.796404 -0.024568
v 0.138073 0.821790 0.044836
v 0.423757 0.985343 -0.076028
v 0.246864 1.058367 -0.020677
v 0.214707 1.057092 -0.002586
v 0.403055 -0.898668 -0.016044
v 0.277443 -0.893443 -0.017219
v 0.138321 -0.888788 -0.033009
v 0.428523 -0.754784 -0.030943
v 0.204411 -0.793541 0.016527
v 0.143530 -0.688878 0.019389
v 0.420749 -0.634764 -0.023002
v 0.286055 -0.601982 -0.013886
v 0.133687 -0.614450 -0.060502
v -1.048586 0.489777 -0.000343
v -1.102653 0.387055 -0.017195
v -1.166525 0.283073 -0.044290
v 1.051497 0.169107 -0.096209
v 1.176174 0.328605 -0.040087
v 1.098760 0.460983 -0.020041
v 0.684580 0.219521 -0.016716
v 0.706862 0.394783 0.016320
v 0.673443 0.504638 0.024664
v 0.804266 0.223779 -0.045867
v 0.880357 0.338674 0.052064
v 0.828462 0.477010 -0.024927
v 0.953387 0.263030 0.040800
v 0.949684 0.354793 -0.016534
v 0.917393 0.486862 -0.027415
v -0.998095 0.207771 0.044730
v -0.963971 0.363655 0.025237
v -0.985287 0.505566 0.011032
v -0.861105 0.142476 -0.039358
v -0.790651 0.259706 0.010648
v -0.914478 0.493783 -0.050173
v -0.625911 0.186297 -0.025886
v -0.687491 0.352494 -0.018811
v -0.755414 0.464267 -0.037726
v -1.084502 -0.071731 -0.012162
v -1.087465 -0.202718 -0.005214
v -1.066284 -0.319411 -0.041348
v 1.090740 -0.339240 -0.018172
v 1.118980 -0.264418 -0.050194
v 1.084050 -0.067711 -0.014605
v 0.657473 -0.370020 -0.051577
v 0.691278 -0.210106 -0.023589
v 0.703172 -0.089676 -0.111274
v 0.812653 -0.344411 -0.026262
v 0.811345 -0.206535 -0.008082
v 0.779760 -0.048057 -0.033494
v 0.942697 -0.422621 0.041411
v 0.992691 -0.172775 0.054651
v 0.921384 -0.032936 -0.027460
v -0.971020 -0.353815 -0.035826
v -1.024896 -0.211312 -0.018864
v -1.026061 -0.032519 -0.051763
v -0.812692 -0.346319 -0.023169
v -0.810851 -0.252334 0.018497
v -0.753229 -0.095864 -0.039473
v -0.673634 -0.358019 -0.008364
v -0.702676 -0.173861 -0.029278
v -0.626529 -0.061299 -0.011784
vn -0.1418 -0.1070 0.9841
vn 0.5258 -0.2523 0.8123
vn -0.0429 0.2494 0.9674
vn -0.3749 -0.0656 0.9248
vn -0.1618 0.2543 0.9535
vn 0.2649 -0.2270 0.9372
vn 0.1913 0.1668 0.9672
vn -0.0882 0.0013 0.9961
vn -0.4804 -0.0457 0.8759
vn -0.0837 0.3418 0.9360
vn 0.0820 -0.5549 0.8279
vn -0.1180 0.0323 0.9925
vn 0.1574 0.2110 0.9647
vn 0.3969 -0.3517 0.8478
vn 0.5079 -0.0917 0.8565
vn -0.1651 0.0186 0.9861
vn 0.1459 0.2248 0.9634
vn -0.0375 -0.3280 0.9439
vn -0.0167 0.1320 0.9911
vn 0.0956 -0.1298 0.9869
vn 0.3530 -0.2646 0.8974
vn 0.1009 0.1989 0.9748
vn -0.2125 0.0355 0.9765
vn -0.2852 0.5204 0.8049
vn 0.0814 0.3761 0.9230
vn 0.1957 -0.3165 0.9282
vn -0.1576 -0.0513 0.9862
vn -0.2773 -0.0583 0.9590
vn 0.4327 0.1057 0.8953
vn -0.3217 -0.3038 0.8968
vn 0.2815 -0.0374 0.9588
vn 0.3003 -0.0317 0.9533
vn 0.0242 -0.2244 0.9742
vn 0.0530 -0.4842 0.8734
vn -0.2101 -0.1131 0.9711
vn 0.2367 0.3082 0.9214
vn -0.2162 0.5557 0.8028
vn 0.2008 -0.1413 0.9694
vn -0.1542 -0.0762 0.9851
vn 0.0340 -0.0080 0.9994
vn 0.2804 -0.1383 0.9499
vn -0.1770 -0.2462 0.9529
vn -0.2577 0.0833 0.9626
vn -0.1219 0.0304 0.9921
vn -0.3713 -0.1313 0.9192
vn 0.2023 0.5641 0.8006
vn -0.2030 0.1375 0.9695
vn -0.2227 -0.3880 0.8944
vn -0.2638 -0.3831 0.8852
vn -0.1274 0.3070 0.9431
vn 0.4807 0.1260 0.8678
vn -0.0100 -0.0748 0.9971
vn -0.1040 -0.4066 0.9077
vn 0.1744 -0.3532 0.9191
vn -0.1319 -0.3537 0.9260
vn 0.0787 -0.0748 0.9941
vn -0.0830 0.4122 0.9073
vn 0.0700 0.4492 0.8907
vn -0.1469 -0.0518 0.9878
vn -0.1192 -0.3881 0.9139
vn 0.1165 0.0805 0.9899
vn 0.1700 0.2600 0.9505
vn 0.1328 -0.0331 0.9906
vn 0.4078 -0.3147 0.8571
vn -0.4902 -0.2368 0.8389
vn 0.2739 -0.2474 0.9294
vn 0.3630 0.1936 0.9115
vn -0.5313 0.0856 0.8428
vn 0.2427 -0.0634 0.9680
vn 0.0701 -0.0602 0.9957
vn -0.1308 -0.0201 0.9912
vn 0.1248 -0.0500 0.9909
vn -0.3418 0.3889 0.8555
vn 0.1683 -0.0530 0.9843
vn 0.0401 -0.1417 0.9891
vn 0.1538 -0.1384 0.9784
vn -0.0419 -0.2328 0.9716
vn -0.1481 -0.1576 0.9763
vn -0.0917 0.0274 0.9954
vn 0.3644 0.1934 0.9109
vn -0.6577 -0.3325 0.6759
vn -0.0606 0.1972 0.9785
vn 0.0835 0.2601 0.9620
vn -0.3461 0.2221 0.9115
vn 0.1638 -0.2838 0.9448
vn -0.2600 -0.2423 0.9347
vn 0.1205 0.1711 0.9779
vn 0.0277 0.1650 0.9859
vn -0.2882 0.1249 0.9494
vn 0.0131 0.1769 0.9841
vn -0.1398 0.0092 0.9901
vn 0.1389 -0.1776 0.9743
vn -0.3595 -0.1102 0.9266
vn -0.2610 0.0951 0.9607
vn 0.0262 -0.2356 0.9715
vn -0.1284 -0.3667 0.9214
vn 0.0634 -0.0243 0.9977
vn 0.0621 -0.0282 0.9977
vn 0.0124 0.0643 0.9979
vn -0.2703 -0.0057 0.9628
vn -0.0265 0.2944 0.9553
vn 0.0807 0.5736 0.8152
vn -0.4371 0.6236 0.6482
vn -0.0214 0.3879 0.9215
vn 0.1551 0.0344 0.9873
vn 0.1234 0.0115 0.9923
vn -0.2326 -0.3168 0.9195
vn 0.1358 -0.0500 0.9895
vn 0.3701 -0.0479 0.9278
vn 0.0369 -0.0107 0.9993
vn -0.0771 -0.1242 0.9893
vn -0.3642 0.1522 0.9188
vn 0.5931 -0.0502 0.8035
vn 0.1413 0.1172 0.9830
vn -0.3102 0.2763 0.9096
vn 0.1169 -0.3752 0.9195
vn 0.0150 0.1119 0.9936
vn 0.1940 0.0271 0.9806
vn 0.3079 0.2629 0.9144
vn 0.0439 -0.0500 0.9978
vn -0.0368 0.2723 0.9615
vn 0.1265 -0.1997 0.9717
vn 0.0079 0.2288 0.9734
vn 0.2419 0.0090 0.9703
vn 0.2044 -0.1856 0.9611
vn 0.4192 0.3306 0.8456
vn -0.3931 -0.2136 0.8943
vn -0.3613 0.1092 0.9260
vn -0.2565 0.0239 0.9662
vn -0.4610 0.0360 0.8867
vn -0.0355 -0.1806 0.9829
vn 0.3257 0.3824 0.8647
vn 0.1253 0.0982 0.9873
vn -0.0887 -0.3846 0.9188
vn 0.1168 0.3019 0.9462
vn 0.6746 0.1815 0.7155
vn 0.3820 -0.1795 0.9066
vn 0.0372 -0.0192 0.9991
vn -0.3102 0.0346 0.9500
vn 0.1477 -0.0592 0.9873
vn 0.0171 0.1405 0.9899
vn 0.1275 0.0349 0.9912
vn -0.1520 -0.2692 0.9510
vn -0.0408 0.2678 0.9626
vn -0.0060 0.1406 0.9901
vn -0.0046 -0.2020 0.9794
vn 0.3753 0.1161 0.9196
vn -0.3368 -0.5390 0.7720
vn -0.3893 -0.0257 0.9208
vn -0.2382 0.2556 0.9370
vn -0.0271 0.1571 0.9872
vn -0.1310 -0.1379 0.9817
vn -0.4645 0.3044 0.8316
vn 0.1826 -0.3514 0.9182
vn 0.5111 -0.0736 0.8564
vn 0.3900 0.2458 0.8874
vn 0.0078 -0.0133 0.9999
vt 0.000000 0.000000
vt 1.000000 0.000000
vt 0.000000 1.000000
vt 1.000000 1.000000
vt 0.250000 0.000000
vt 0.500000 0.000000
vt 0.750000 0.000000
vt 0.750000 1.000000
vt 0.500000 1.000000
vt 0.250000 1.000000
vt 0.000000 0.750000
vt 0.000000 0.500000
vt 0.000000 0.250000
vt 1.000000 0.250000
vt 1.000000 0.500000
vt 1.000000 0.750000
vt 1.000000 0.812500
vt 1.000000 0.875000
vt 1.000000 0.937500
vt 0.250000 0.812500
vt 0.250000 0.875000
vt 0.250000 0.937500
vt 0.500000 0.812500
vt 0.500000 0.875000
vt 0.500000 0.937500
vt 0.750000 0.812500
vt 0.750000 0.875000
vt 0.750000 0.937500
vt 0.000000 0.937500
vt 0.000000 0.875000
vt 0.000000 0.812500
vt 0.000000 0.187500
vt 0.000000 0.125000
vt 0.000000 0.062500
vt 1.000000 0.062500
vt 1.000000 0.125000
vt 1.000000 0.187500
vt 0.250000 0.062500
vt 0.250000 0.125000
vt 0.250000 0.187500
vt 0.500000 0.062500
vt 0.500000 0.125000
vt 0.500000 0.187500
vt 0.750000 0.062500
vt 0.750000 0.125000
vt 0.750000 0.187500
vt 0.812500 0.000000
vt 0.875000 0.000000
vt 0.937500 0.000000
vt 0.937500 1.000000
vt 0.875000 1.000000
vt 0.812500 1.000000
vt 0.937500 0.250000
vt 0.875000 0.250000
vt 0.812500 0.250000
vt 0.937500 0.500000
vt 0.875000 0.500000
vt 0.812500 0.500000
vt 0.937500 0.750000
vt 0.875000 0.750000
vt 0.812500 0.750000
vt 0.937500 0.812500
vt 0.875000 0.812500
vt 0.812500 0.812500
vt 0.937500 0.875000
vt 0.875000 0.875000
vt 0.812500 0.875000
vt 0.937500 0.937500
vt 0.875000 0.937500
vt 0.812500 0.937500
vt 0.937500 0.062500
vt 0.875000 0.062500
vt 0.812500 0.062500
vt 0.937500 0.125000
vt 0.875000 0.125000
vt 0.812500 0.125000
vt 0.937500 0.187500
vt 0.875000 0.187500
vt 0.812500 0.187500
vt 0.187500 1.000000
vt 0.125000 1.000000
vt 0.062500 1.000000
vt 0.062500 0.000000
vt 0.125000 0.000000
vt 0.187500 0.000000
vt 0.187500 0.250000
vt 0.125000 0.250000
vt 0.062500 0.250000
vt 0.187500 0.500000
vt 0.125000 0.500000
vt 0.062500 0.500000
vt 0.187500 0.750000
vt 0.125000 0.750000
vt 0.062500 0.750000
vt 0.187500 0.812500
vt 0.125000 0.812500
vt 0.062500 0.812500
vt 0.187500 0.875000
vt 0.125000 0.875000
vt 0.062500 0.875000
vt 0.187500 0.937500
vt 0.125000 0.937500
vt 0.062500 0.937500
vt 0.187500 0.062500
vt 0.125000 0.062500
vt 0.062500 0.062500
vt 0.187500 0.125000
vt 0.125000 0.125000
vt 0.062500 0.125000
vt 0.187500 0.187500
vt 0.125000 0.187500
vt 0.062500 0.187500
vt 0.312500 0.000000
vt 0.375000 0.000000
vt 0.437500 0.000000
vt 0.437500 1.000000
vt 0.375000 1.000000
vt 0.312500 1.000000
vt 0.437500 0.812500
vt 0.375000 0.812500
vt 0.312500 0.812500
vt 0.437500 0.875000
vt 0.375000 0.875000
vt 0.312500 0.875000
vt 0.437500 0.937500
vt 0.375000 0.937500
vt 0.312500 0.937500
vt 0.437500 0.062500
vt 0.375000 0.062500
vt 0.312500 0.062500
vt 0.437500 0.125000
vt 0.375000 0.125000
vt 0.312500 0.125000
vt 0.437500 0.187500
vt 0.375000 0.187500
vt 0.312500 0.187500
vt 0.562500 0.000000
vt 0.625000 0.000000
vt 0.687500 0.000000
vt 0.687500 1.000000
vt 0.625000 1.000000
vt 0.562500 1.000000
vt 0.687500 0.812500
vt 0.625000 0.812500
vt 0.562500 0.812500
vt 0.687500 0.875000
vt 0.625000 0.875000
vt 0.562500 0.875000
vt 0.687500 0.937500
vt 0.625000 0.937500
vt 0.562500 0.937500
vt 0.687500 0.062500
vt 0.625000 0.062500
vt 0.562500 0.062500
vt 0.687500 0.125000
vt 0.625000 0.125000
vt 0.562500 0.125000
vt 0.687500 0.187500
vt 0.625000 0.187500
vt 0.562500 0.187500
vt 0.000000 0.687500
vt 0.000000 0.625000
vt 0.000000 0.562500
vt 1.000000 0.562500
vt 1.000000 0.625000
vt 1.000000 0.687500
vt 0.812500 0.562500
vt 0.812500 0.625000
vt 0.812500 0.687500
vt 0.875000 0.562500
vt 0.875000 0.625000
vt 0.875000 0.687500
vt 0.937500 0.562500
vt 0.937500 0.625000
vt 0.937500 0.687500
vt 0.062500 0.562500
vt 0.062500 0.625000
vt 0.062500 0.687500
vt 0.125000 0.562500
vt 0.125000 0.625000
vt 0.125000 0.687500
vt 0.187500 0.562500
vt 0.187500 0.625000
vt 0.187500 0.687500
vt 0.000000 0.437454
vt 0.000000 0.374954
vt 0.000000 0.312454
vt 1.000000 0.312454
vt 1.000000 0.374954
vt 1.000000 0.437454
vt 0.812500 0.312454
vt 0.812500 0.374954
vt 0.812500 0.437454
vt 0.875000 0.312454
vt 0.875000 0.374954
vt 0.875000 0.437454
vt 0.937500 0.312454
vt 0.937500 0.374954
vt 0.937500 0.437454
vt 0.062500 0.312454
vt 0.062500 0.374954
vt 0.062500 0.437454
vt 0.125000 0.312454
vt 0.125000 0.374954
vt 0.125000 0.437454
vt 0.187500 0.312454
vt 0.187500 0.374954
vt 0.187500 0.437454
s 0
f 68/68/1 19/19/1 4/4/1 50/50/1
f 101/101/2 22/22/2 10/10/2 80/80/2
f 125/125/3 25/25/3 9/9/3 116/116/3
f 149/149/4 28/28/4 8/8/4 140/140/4
f 77/77/5 37/37/5 14/14/5 53/53/5
f 199/199/6 190/190/6 15/15/6 56/56/6
f 175/175/7 166/166/7 16/16/7 59/59/7
f 143/143/8 26/26/8 27/27/8 146/146/8
f 146/146/9 27/27/9 28/28/9 149/149/9
f 119/119/10 23/23/10 24/24/10 122/122/10
f 122/122/11 24/24/11 25/25/11 125/125/11
f 95/95/12 20/20/12 21/21/12 98/98/12
f 98/98/13 21/21/13 22/22/13 101/101/13
f 59/59/14 16/16/14 17/17/14 62/62/14
f 62/62/15 17/17/15 18/18/15 65/65/15
f 65/65/16 18/18/16 19/19/16 68/68/16
f 49/49/17 2/2/17 35/35/17 71/71/17
f 71/71/18 35/35/18 36/36/18 74/74/18
f 74/74/19 36/36/19 37/37/19 77/77/19
f 85/85/20 5/5/20 38/38/20 104/104/20
f 104/104/21 38/38/21 39/39/21 107/107/21
f 107/107/22 39/39/22 40/40/22 110/110/22
f 115/115/23 6/6/23 41/41/23 128/128/23
f 128/128/24 41/41/24 42/42/24 131/131/24
f 131/131/25 42/42/25 43/43/25 134/134/25
f 139/139/26 7/7/26 44/44/26 152/152/26
f 152/152/27 44/44/27 45/45/27 155/155/27
f 155/155/28 45/45/28 46/46/28 158/158/28
f 45/45/29 76/76/29 79/79/29 46/46/29
f 76/76/30 75/75/30 78/78/30 79/79/30
f 75/75/31 74/74/31 77/77/31 78/78/31
f 44/44/32 73/73/32 76/76/32 45/45/32
f 73/73/33 72/72/33 75/75/33 76/76/33
f 72/72/34 71/71/34 74/74/34 75/75/34
f 7/7/35 47/47/35 73/73/35 44/44/35
f 47/47/36 48/48/36 72/72/36 73/73/36
f 48/48/37 49/49/37 71/71/37 72/72/37
f 27/27/38 67/67/38 70/70/38 28/28/38
f 67/67/39 66/66/39 69/69/39 70/70/39
f 66/66/40 65/65/40 68/68/40 69/69/40
f 26/26/41 64/64/41 67/67/41 27/27/41
f 64/64/42 63/63/42 66/66/42 67/67/42
f 63/63/43 62/62/43 65/65/43 66/66/43
f 61/61/44 60/60/44 63/63/44 64/64/44
f 60/60/45 59/59/45 62/62/45 63/63/45
f 169/169/46 172/172/46 60/60/46 61/61/46
f 172/172/47 175/175/47 59/59/47 60/60/47
f 193/193/48 196/196/48 57/57/48 58/58/48
f 196/196/49 199/199/49 56/56/49 57/57/49
f 79/79/50 78/78/50 54/54/50 55/55/50
f 78/78/51 77/77/51 53/53/51 54/54/51
f 28/28/52 70/70/52 52/52/52 8/8/52
f 70/70/53 69/69/53 51/51/53 52/52/53
f 69/69/54 68/68/54 50/50/54 51/51/54
f 33/33/55 109/109/55 112/112/55 32/32/55
f 109/109/56 108/108/56 111/111/56 112/112/56
f 108/108/57 107/107/57 110/110/57 111/111/57
f 34/34/58 106/106/58 109/109/58 33/33/58
f 106/106/59 105/105/59 108/108/59 109/109/59
f 105/105/60 104/104/60 107/107/60 108/108/60
f 1/1/61 83/83/61 106/106/61 34/34/61
f 83/83/62 84/84/62 105/105/62 106/106/62
f 84/84/63 85/85/63 104/104/63 105/105/63
f 30/30/64 100/100/64 103/103/64 29/29/64
f 100/100/65 99/99/65 102/102/65 103/103/65
f 99/99/66 98/98/66 101/101/66 102/102/66
f 31/31/67 97/97/67 100/100/67 30/30/67
f 97/97/68 96/96/68 99/99/68 100/100/68
f 96/96/69 95/95/69 98/98/69 99/99/69
f 11/11/70 94/94/70 97/97/70 31/31/70
f 94/94/71 93/93/71 96/96/71 97/97/71
f 93/93/72 92/92/72 95/95/72 96/96/72
f 161/161/73 178/178/73 94/94/73 11/11/73
f 178/178/74 181/181/74 93/93/74 94/94/74
f 181/181/75 184/184/75 92/92/75 93/93/75
f 185/185/76 202/202/76 91/91/76 12/12/76
f 202/202/77 205/205/77 90/90/77 91/91/77
f 205/205/78 208/208/78 89/89/78 90/90/78
f 32/32/79 112/112/79 88/88/79 13/13/79
f 112/112/80 111/111/80 87/87/80 88/88/80
f 111/111/81 110/110/81 86/86/81 87/87/81
f 29/29/82 103/103/82 82/82/82 3/3/82
f 103/103/83 102/102/83 81/81/83 82/82/83
f 102/102/84 101/101/84 80/80/84 81/81/84
f 39/39/85 133/133/85 136/136/85 40/40/85
f 133/133/86 132/132/86 135/135/86 136/136/86
f 132/132/87 131/131/87 134/134/87 135/135/87
f 38/38/88 130/130/88 133/133/88 39/39/88
f 130/130/89 129/129/89 132/132/89 133/133/89
f 129/129/90 128/128/90 131/131/90 132/132/90
f 5/5/91 113/113/91 130/130/91 38/38/91
f 113/113/92 114/114/92 129/129/92 130/130/92
f 114/114/93 115/115/93 128/128/93 129/129/93
f 21/21/94 124/124/94 127/127/94 22/22/94
f 124/124/95 123/123/95 126/126/95 127/127/95
f 123/123/96 122/122/96 125/125/96 126/126/96
f 20/20/97 121/121/97 124/124/97 21/21/97
f 121/121/98 120/120/98 123/123/98 124/124/98
f 120/120/99 119/119/99 122/122/99 123/123/99
f 22/22/100 127/127/100 118/118/100 10/10/100
f 127/127/101 126/126/101 117/117/101 118/118/101
f 126/126/102 125/125/102 116/116/102 117/117/102
f 42/42/103 157/157/103 160/160/103 43/43/103
f 157/157/104 156/156/104 159/159/104 160/160/104
f 156/156/105 155/155/105 158/158/105 159/159/105
f 41/41/106 154/154/106 157/157/106 42/42/106
f 154/154/107 153/153/107 156/156/107 157/157/107
f 153/153/108 152/152/108 155/155/108 156/156/108
f 6/6/109 137/137/109 154/154/109 41/41/109
f 137/137/110 138/138/110 153/153/110 154/154/110
f 138/138/111 139/139/111 152/152/111 153/153/111
f 24/24/112 148/148/112 151/151/112 25/25/112
f 148/148/113 147/147/113 150/150/113 151/151/113
f 147/147/114 146/146/114 149/149/114 150/150/114
f 23/23/115 145/145/115 148/148/115 24/24/115
f 145/145/116 144/144/116 147/147/116 148/148/116
f 144/144/117 143/143/117 146/146/117 147/147/117
f 25/25/118 151/151/118 142/142/118 9/9/118
f 151/151/119 150/150/119 141/141/119 142/142/119
f 150/150/120 149/149/120 140/140/120 141/141/120
f 90/90/121 89/89/121 182/182/121 179/179/121
f 179/179/122 182/182/122 183/183/122 180/180/122
f 180/180/123 183/183/123 184/184/123 181/181/123
f 91/91/124 90/90/124 179/179/124 176/176/124
f 176/176/125 179/179/125 180/180/125 177/177/125
f 177/177/126 180/180/126 181/181/126 178/178/126
f 12/12/127 91/91/127 176/176/127 163/163/127
f 163/163/128 176/176/128 177/177/128 162/162/128
f 162/162/129 177/177/129 178/178/129 161/161/129
f 57/57/130 56/56/130 173/173/130 170/170/130
f 170/170/131 173/173/131 174/174/131 171/171/131
f 171/171/132 174/174/132 175/175/132 172/172/132
f 58/58/133 57/57/133 170/170/133 167/167/133
f 167/167/134 170/170/134 171/171/134 168/168/134
f 168/168/135 171/171/135 172/172/135 169/169/135
f 56/56/136 15/15/136 164/164/136 173/173/136
f 173/173/137 164/164/137 165/165/137 174/174/137
f 174/174/138 165/165/138 166/166/138 175/175/138
f 87/87/139 86/86/139 206/206/139 203/203/139
f 203/203/140 206/206/140 207/207/140 204/204/140
f 204/204/141 207/207/141 208/208/141 205/205/141
f 88/88/142 87/87/142 203/203/142 200/200/142
f 200/200/143 203/203/143 204/204/143 201/201/143
f 201/201/144 204/204/144 205/205/144 202/202/144
f 13/13/145 88/88/145 200/200/145 187/187/145
f 187/187/146 200/200/146 201/201/146 186/186/146
f 186/186/147 201/201/147 202/202/147 185/185/147
f 54/54/148 53/53/148 197/197/148 194/194/148
f 194/194/149 197/197/149 198/198/149 195/195/149
f 195/195/150 198/198/150 199/199/150 196/196/150
f 55/55/151 54/54/151 194/194/151 191/191/151
f 191/191/152 194/194/152 195/195/152 192/192/152
f 192/192/153 195/195/153 196/196/153 193/193/153
f 53/53/154 14/14/154 188/188/154 197/197/154
f 197/197/155 188/188/155 189/189/155 198/198/155
f 198/198/156 189/189/156 190/190/156 199/199/156
f 158/158/157 46/46/157 79/79/157 55/55/157 191/191/157 192/192/157 193/193/157 58/58/157 167/167/157 168/168/157 169/169/157 61/61/157 64/64/157 26/26/157 143/143/157 144/144/157 145/145/157 23/23/157 119/119/157 120/120/157 121/121/157 20/20/157 95/95/157 92/92/157 184/184/157 183/183/157 182/182/157 89/89/157 208/208/157 207/207/157 206/206/157 86/86/157 110/110/157 40/40/157 136/136/157 135/135/157 134/134/157 43/43/157 160/160/157 159/159/157
