# Blender 3.3.0
# www.blender.org
mtllib full_starting_map (2).mtl
o Plane
v -29.623596 0.000000 29.623596
v 29.623596 0.000000 29.623596
v -29.623596 0.000000 -29.623596
v 29.623596 0.000000 -29.623596
vn -0.0000 1.0000 -0.0000
vt 0.000000 0.000000
vt 1.000000 0.000000
vt 0.000000 1.000000
vt 1.000000 1.000000
s 0
f 1/1/1 2/2/1 4/4/1 3/3/1
o Cube
v 5.500000 -0.213540 5.864274
v 5.500000 6.213540 5.864274
v 5.500000 -0.213540 -3.864274
v 5.500000 6.213540 -3.864274
v 7.500000 -0.213540 5.864274
v 7.500000 6.213540 5.864274
v 7.500000 -0.213540 -3.864274
v 7.500000 6.213540 -3.864274
v 5.500000 -0.213540 1.000000
v 5.500000 6.213540 1.000000
v 7.500000 -0.213540 1.000000
v 7.500000 6.213540 1.000000
v 5.500000 6.213540 -1.432137
v 7.500000 -0.213540 -1.432137
v 5.500000 -0.213540 -1.432137
v 7.500000 6.213540 -1.432137
v 5.500000 -0.213540 3.432137
v 7.500000 6.213540 3.432137
v 5.500000 6.213540 3.432137
v 7.500000 -0.213540 3.432137
v 5.500000 3.000000 5.864274
v 5.500000 3.000000 -3.864274
v 7.500000 3.000000 -3.864274
v 7.500000 3.000000 5.864274
v 7.500000 3.000000 1.000000
v 5.500000 3.000000 1.000000
v 7.500000 3.000000 -1.432137
v 5.500000 3.000000 -1.432137
v 5.500000 3.000000 3.432137
v 7.500000 3.000000 3.432137
v 11.359849 -0.213540 3.432137
v 11.359849 -0.213540 1.000000
v 11.359849 3.000000 1.000000
v 11.359849 -0.213540 -1.432137
v 11.359849 3.000000 -1.432137
v 11.359849 3.000000 3.432137
v 2.887651 6.213540 -1.432137
v 2.887651 6.213540 -3.864274
v 2.887651 3.000000 -3.864274
v 2.887651 -0.213540 -3.864274
v 2.887651 -0.213540 -1.432137
v 2.887651 3.000000 -1.432137
v 5.500000 4.606770 5.864274
v 5.500000 4.606770 -3.864274
v 7.500000 4.606770 -3.864274
v 7.500000 4.606770 5.864274
v 7.500000 4.606770 1.000000
v 5.500000 4.606770 1.000000
v 7.500000 4.606770 -1.432137
v 5.500000 4.606770 -1.432137
v 5.500000 4.606770 3.432137
v 7.500000 4.606770 3.432137
v 2.887651 4.606770 -3.864274
v 2.887651 4.606770 -1.432137
v -4.117014 6.213540 -1.432137
v -4.117014 6.213540 -3.864274
v -4.117014 4.606770 -3.864274
v -4.117014 4.606770 -1.432137
v -0.614681 6.213540 -3.864274
v -0.614682 6.213540 -1.432137
v -0.614681 4.606770 -3.864274
v -0.614681 4.606770 -1.432137
v -4.117014 -0.393608 -1.432137
v -4.117014 -0.393608 -3.864274
v -0.614681 -0.393608 -3.864274
v -0.614681 -0.393608 -1.432137
v -4.117014 6.213540 10.870028
v -4.117014 4.606770 10.870028
v -0.614681 4.606770 10.870028
v -0.614682 6.213540 10.870028
v -0.614681 -0.393608 10.870028
v -4.117014 -0.393608 10.870028
v 22.415161 6.213540 3.432137
v 22.415161 6.213540 5.864274
v 22.415161 3.000000 5.864274
v 22.415161 -0.213540 5.864274
v 22.415161 -0.213540 3.432137
v 22.415161 3.000000 3.432137
v 22.415161 4.606770 5.864274
v 22.415161 4.606770 3.432137
v 14.998110 -0.213540 3.432137
v 14.998110 3.000000 3.432137
v 14.998110 -0.213540 5.864274
v 14.998110 3.000000 5.864274
v 14.998110 6.213540 3.432137
v 14.998110 4.606770 3.432137
v 14.998110 6.213540 5.864274
v 14.998110 4.606770 5.864274
v 18.706635 3.000000 3.432137
v 18.706635 -0.213540 5.864274
v 18.706635 6.213540 3.432137
v 18.706635 6.213540 5.864274
v 18.706635 4.606770 5.864274
v 18.706635 -0.213540 3.432137
v 18.706635 3.000000 5.864274
v 18.706635 4.606770 3.432137
v 20.560898 3.000000 3.432137
v 20.560898 -0.213540 5.864274
v 20.560898 6.213540 3.432137
v 20.560898 6.213540 5.864274
v 20.560898 4.606770 5.864274
v 20.560898 -0.213540 3.432137
v 20.560898 3.000000 5.864274
v 20.560898 4.606770 3.432137
v 22.415161 3.000000 18.054585
v 22.415161 -0.213540 18.054585
v 22.415161 4.606770 18.054585
v 22.415161 6.213540 18.054585
v 20.560898 -0.213540 18.054585
v 20.560898 6.213540 18.054585
v 20.560898 4.606770 18.054585
v 20.560898 3.000000 18.054585
v 22.415161 3.000000 18.589182
v 22.415161 -0.213540 18.589182
v 22.415161 4.606770 18.589182
v 22.415161 6.213540 18.589182
v 20.560898 -0.213540 18.589182
v 20.560898 6.213540 18.589182
v 20.560898 4.606770 18.589182
v 20.560898 3.000000 18.589182
v -6.217289 3.000000 18.589182
v -6.217289 3.000000 18.054585
v -6.217289 -0.213540 18.054585
v -6.217289 -0.213540 18.589182
v -6.217289 4.606770 18.054585
v -6.217289 6.213540 18.054585
v -6.217289 4.606770 18.589182
v -6.217289 6.213540 18.589182
v 20.560898 6.564555 18.054585
v 22.415161 6.564555 18.054585
v 20.560898 6.564555 18.589182
v 22.415161 6.564555 18.589182
v -6.217289 6.564555 18.589182
v -6.217289 6.564555 18.054585
v 20.560898 6.213540 -7.407324
v 22.415161 6.213540 -7.407324
v -6.217289 6.213540 -7.407324
v 20.560898 6.564555 -7.407324
v 22.415161 6.564555 -7.407324
v -6.217289 6.564555 -7.407324
vn -0.0000 1.0000 -0.0000
vn -0.0000 -0.0000 -1.0000
vn -0.0000 -1.0000 -0.0000
vn -0.0000 -0.0000 1.0000
vn 1.0000 -0.0000 -0.0000
vn -1.0000 -0.0000 -0.0000
vt 0.125000 0.750000
vt 0.375000 0.000000
vt 0.375000 1.000000
vt 0.625000 1.000000
vt 0.875000 0.750000
vt 0.625000 0.000000
vt 0.125000 0.500000
vt 0.375000 0.250000
vt 0.875000 0.500000
vt 0.625000 0.250000
vt 0.375000 0.750000
vt 0.625000 0.750000
vt 0.375000 0.500000
vt 0.625000 0.500000
vt 0.125000 0.625000
vt 0.375000 0.125000
vt 0.625000 0.125000
vt 0.875000 0.625000
vt 0.375000 0.625000
vt 0.625000 0.625000
vt 0.875000 0.562500
vt 0.625000 0.187500
vt 0.375000 0.562500
vt 0.125000 0.562500
vt 0.375000 0.187500
vt 0.625000 0.562500
vt 0.125000 0.687500
vt 0.375000 0.062500
vt 0.625000 0.687500
vt 0.625000 0.062500
vt 0.875000 0.687500
vt 0.375000 0.687500
vt 0.500000 0.000000
vt 0.500000 1.000000
vt 0.500000 0.250000
vt 0.500000 0.500000
vt 0.500000 0.750000
vt 0.500000 0.625000
vt 0.500000 0.125000
vt 0.500000 0.562500
vt 0.500000 0.187500
vt 0.500000 0.062500
vt 0.500000 0.687500
vt 0.375000 0.687500
vt 0.375000 0.625000
vt 0.500000 0.625000
vt 0.375000 0.562500
vt 0.500000 0.562500
vt 0.500000 0.687500
vt 0.625000 0.187500
vt 0.875000 0.562500
vt 0.625000 0.250000
vt 0.875000 0.500000
vt 0.500000 0.250000
vt 0.125000 0.500000
vt 0.375000 0.250000
vt 0.125000 0.562500
vt 0.375000 0.187500
vt 0.500000 0.187500
vt 0.562500 0.000000
vt 0.562500 1.000000
vt 0.562500 0.250000
vt 0.562500 0.500000
vt 0.562500 0.750000
vt 0.562500 0.625000
vt 0.562500 0.125000
vt 0.562500 0.562500
vt 0.562500 0.187500
vt 0.562500 0.062500
vt 0.562500 0.687500
vt 0.562500 0.250000
vt 0.562500 0.187500
vt 0.625000 0.187500
vt 0.875000 0.562500
vt 0.875000 0.500000
vt 0.625000 0.250000
vt 0.562500 0.250000
vt 0.562500 0.187500
vt 0.625000 0.250000
vt 0.875000 0.500000
vt 0.875000 0.562500
vt 0.625000 0.187500
vt 0.562500 0.250000
vt 0.562500 0.187500
vt 0.562500 0.187500
vt 0.562500 0.250000
vt 0.562500 0.250000
vt 0.562500 0.187500
vt 0.625000 0.187500
vt 0.875000 0.562500
vt 0.562500 0.187500
vt 0.562500 0.187500
vt 0.875000 0.562500
vt 0.625000 0.187500
vt 0.562500 0.187500
vt 0.562500 0.187500
vt 0.625000 0.687500
vt 0.625000 0.750000
vt 0.500000 0.750000
vt 0.375000 0.750000
vt 0.375000 0.687500
vt 0.500000 0.687500
vt 0.562500 0.750000
vt 0.562500 0.687500
vt 0.375000 0.687500
vt 0.500000 0.687500
vt 0.375000 0.750000
vt 0.500000 0.750000
vt 0.625000 0.687500
vt 0.562500 0.687500
vt 0.625000 0.750000
vt 0.562500 0.750000
vt 0.500000 0.687500
vt 0.375000 0.750000
vt 0.625000 0.687500
vt 0.625000 0.750000
vt 0.562500 0.750000
vt 0.375000 0.687500
vt 0.500000 0.750000
vt 0.562500 0.687500
vt 0.500000 0.687500
vt 0.375000 0.750000
vt 0.625000 0.687500
vt 0.625000 0.750000
vt 0.562500 0.750000
vt 0.375000 0.687500
vt 0.500000 0.750000
vt 0.562500 0.687500
vt 0.500000 0.750000
vt 0.375000 0.750000
vt 0.562500 0.750000
vt 0.625000 0.750000
vt 0.375000 0.750000
vt 0.625000 0.750000
vt 0.562500 0.750000
vt 0.500000 0.750000
vt 0.500000 0.750000
vt 0.375000 0.750000
vt 0.562500 0.750000
vt 0.625000 0.750000
vt 0.375000 0.750000
vt 0.625000 0.750000
vt 0.562500 0.750000
vt 0.500000 0.750000
vt 0.500000 0.750000
vt 0.500000 0.750000
vt 0.375000 0.750000
vt 0.375000 0.750000
vt 0.562500 0.750000
vt 0.625000 0.750000
vt 0.562500 0.750000
vt 0.625000 0.750000
vt 0.625000 0.750000
vt 0.625000 0.750000
vt 0.625000 0.750000
vt 0.625000 0.750000
vt 0.625000 0.750000
vt 0.625000 0.750000
vt 0.625000 0.750000
vt 0.625000 0.750000
vt 0.625000 0.750000
vt 0.625000 0.750000
vt 0.625000 0.750000
vt 0.625000 0.750000
s 0
f 17/25/2 8/13/2 42/57/2 41/55/2
f 48/66/3 8/14/3 12/18/3 49/67/3
f 102/126/4 106/130/4 81/105/4 80/104/4
f 50/68/5 10/16/5 6/8/5 47/65/5
f 21/31/4 24/36/4 9/15/4 5/5/4
f 22/33/2 23/35/2 6/9/2 10/16/2
f 20/30/2 17/25/2 14/22/2 16/24/2
f 19/28/4 18/27/4 15/23/4 13/19/4
f 53/71/6 20/30/6 16/24/6 51/69/6
f 55/73/7 23/34/7 14/21/7 52/70/7
f 49/67/6 12/18/6 20/30/6 53/71/6
f 7/11/4 11/17/4 18/27/4 19/28/4
f 12/18/2 8/13/2 17/25/2 20/30/2
f 52/70/7 14/21/7 17/26/7 54/72/7
f 47/64/7 6/10/7 23/34/7 55/73/7
f 16/24/2 14/22/2 23/35/2 22/33/2
f 13/19/4 15/23/4 24/36/4 21/31/4
f 51/69/6 16/24/6 22/33/6 56/74/6
f 18/27/3 31/44/3 39/52/3 38/51/3
f 5/6/7 25/37/7 33/46/7 21/32/7
f 13/20/7 30/43/7 32/45/7 19/29/7
f 11/17/6 27/40/6 31/44/6 18/27/6
f 21/32/7 33/46/7 30/43/7 13/20/7
f 29/42/2 34/47/2 40/53/2 37/50/2
f 9/15/5 28/41/5 25/38/5 5/7/5
f 78/102/2 104/128/2 114/138/2 112/136/2
f 7/12/3 26/39/3 27/40/3 11/17/3
f 48/66/3 26/39/3 43/58/3 57/75/3
f 36/49/6 37/50/6 40/53/6 35/48/6
f 38/51/6 39/52/6 37/50/6 36/49/6
f 34/47/5 24/36/5 35/48/5 40/53/5
f 31/44/2 29/42/2 37/50/2 39/52/2
f 24/36/4 15/23/4 36/49/4 35/48/4
f 15/23/4 18/27/4 38/51/4 36/49/4
f 64/85/2 63/84/2 60/79/2 59/78/2
f 45/62/7 46/63/7 43/58/7 44/60/7
f 7/11/4 19/28/4 45/61/4 44/59/4
f 19/29/5 32/45/5 46/63/5 45/62/5
f 26/39/3 7/12/3 44/60/3 43/58/3
f 54/72/5 17/26/5 41/54/5 58/76/5
f 32/45/5 54/72/5 58/76/5 46/63/5
f 46/63/7 58/76/7 57/75/7 43/58/7
f 8/14/3 48/66/3 57/75/3 42/56/3
f 29/42/6 51/69/6 56/74/6 34/47/6
f 25/37/7 47/64/7 55/73/7 33/46/7
f 30/43/7 52/70/7 54/72/7 32/45/7
f 27/40/6 49/67/6 53/71/6 31/44/6
f 33/46/7 55/73/7 52/70/7 30/43/7
f 31/44/6 53/71/6 51/69/6 29/42/6
f 28/41/5 50/68/5 47/65/5 25/38/5
f 106/130/3 101/125/3 82/106/3 81/105/3
f 26/39/3 48/66/3 49/67/3 27/40/3
f 62/82/7 59/77/7 60/80/7 61/81/7
f 63/83/3 65/87/3 61/81/3 60/80/3
f 61/81/3 65/87/3 69/91/3 68/90/3
f 70/92/6 66/88/6 73/96/6 75/99/6
f 58/76/5 41/54/5 64/86/5 66/88/5
f 57/75/4 58/76/4 66/88/4 65/87/4
f 42/56/3 57/75/3 65/87/3 63/83/3
f 41/55/2 42/57/2 63/84/2 64/85/2
f 69/91/4 70/92/4 67/89/4 68/90/4
f 65/87/6 66/88/6 70/92/6 69/91/6
f 59/77/7 62/82/7 72/95/7 71/93/7
f 62/82/7 61/81/7 68/90/7 67/89/7
f 73/96/5 74/98/5 71/93/5 72/95/5
f 73/96/5 72/95/5 76/100/5 75/99/5
f 64/85/2 59/78/2 71/94/2 74/97/2
f 67/89/4 70/92/4 75/99/4 76/100/4
f 62/82/7 67/89/7 76/100/7 72/95/7
f 66/88/6 64/86/6 74/98/6 73/96/6
f 84/108/6 77/101/6 78/102/6 83/107/6
f 81/105/6 82/106/6 79/103/6 80/104/6
f 82/106/6 84/108/6 83/107/6 79/103/6
f 108/132/3 103/127/3 77/101/3 84/108/3
f 101/125/3 108/132/3 84/108/3 82/106/3
f 103/127/2 104/128/2 78/102/2 77/101/2
f 83/107/6 78/102/6 112/136/6 111/135/6
f 107/131/7 102/126/7 113/137/7 116/140/7
f 50/68/5 28/41/5 88/112/5 92/116/5
f 10/16/5 50/68/5 92/116/5 91/115/5
f 22/33/2 10/16/2 91/115/2 89/113/2
f 34/47/3 56/74/3 90/114/3 86/110/3
f 56/74/3 22/33/3 89/113/3 90/114/3
f 24/36/3 34/47/3 86/110/3 85/109/3
f 28/41/5 9/15/5 87/111/5 88/112/5
f 9/15/4 24/36/4 85/109/4 87/111/4
f 92/116/5 88/112/5 99/123/5 97/121/5
f 91/115/5 92/116/5 97/121/5 96/120/5
f 89/113/2 91/115/2 96/120/2 95/119/2
f 86/110/3 90/114/3 100/124/3 93/117/3
f 90/114/3 89/113/3 95/119/3 100/124/3
f 85/109/3 86/110/3 93/117/3 98/122/3
f 88/112/5 87/111/5 94/118/5 99/123/5
f 87/111/4 85/109/4 98/122/4 94/118/4
f 97/121/5 99/123/5 107/131/5 105/129/5
f 96/120/5 97/121/5 105/129/5 104/128/5
f 95/119/2 96/120/2 104/128/2 103/127/2
f 93/117/3 100/124/3 108/132/3 101/125/3
f 100/124/3 95/119/3 103/127/3 108/132/3
f 98/122/3 93/117/3 101/125/3 106/130/3
f 99/123/5 94/118/5 102/126/5 107/131/5
f 94/118/4 98/122/4 106/130/4 102/126/4
f 113/137/4 110/134/4 118/142/4 121/145/4
f 121/145/5 124/148/5 125/149/5 128/152/5
f 115/139/3 116/140/3 126/150/3 129/153/3
f 105/129/7 107/131/7 116/140/7 115/139/7
f 80/104/6 79/103/6 109/133/6 110/134/6
f 102/126/4 80/104/4 110/134/4 113/137/4
f 79/103/6 83/107/6 111/135/6 109/133/6
f 104/128/7 105/129/7 115/139/7 114/138/7
f 124/148/5 121/145/5 118/142/5 117/141/5
f 122/146/5 123/147/5 119/143/5 120/144/5
f 123/147/5 124/148/5 117/141/5 119/143/5
f 109/133/6 111/135/6 119/143/6 117/141/6
f 116/140/3 113/137/3 127/151/3 126/150/3
f 120/144/6 112/136/6 134/158/6 136/160/6
f 111/135/6 112/136/6 120/144/6 119/143/6
f 110/134/6 109/133/6 117/141/6 118/142/6
f 129/153/7 126/150/7 125/149/7 131/155/7
f 126/150/7 127/151/7 128/152/7 125/149/7
f 130/154/7 129/153/7 131/155/7 132/156/7
f 124/148/5 123/147/5 131/155/5 125/149/5
f 122/146/5 120/144/5 136/160/5 135/159/5
f 114/138/3 115/139/3 129/153/3 130/154/3
f 113/137/4 121/145/4 128/152/4 127/151/4
f 123/147/5 122/146/5 132/156/5 131/155/5
f 134/158/2 133/157/2 135/159/2 136/160/2
f 135/159/2 133/157/2 138/162/2 137/161/2
f 132/156/5 122/146/5 135/159/5 137/161/5
f 130/154/7 132/156/7 137/161/7 138/162/7
f 130/154/7 138/162/7 144/168/7 141/165/7
f 138/162/2 133/157/2 142/166/2 144/168/2
f 140/164/3 139/163/3 142/166/3 143/167/3
f 139/163/3 141/165/3 144/168/3 142/166/3
f 134/158/6 112/136/6 140/164/6 143/167/6
f 112/136/4 114/138/4 139/163/4 140/164/4
f 133/157/2 134/158/2 143/167/2 142/166/2
f 114/138/4 130/154/4 141/165/4 139/163/4
