# Blender 3.3.0
# www.blender.org
mtllib mapTest.mtl
o Plane
v -70.000000 0.000000 70.000000
v 70.000000 0.000000 70.000000
v -70.000000 0.000000 -70.000000
v 70.000000 0.000000 -70.000000
vn -0.0000 1.0000 -0.0000
vt 0.000000 0.000000
vt 1.000000 0.000000
vt 0.000000 1.000000
vt 1.000000 1.000000
s 0
f 1/1/1 2/2/1 4/4/1 3/3/1
o Cube.001
v -19.316011 2.084498 2.947659
v -19.316011 2.084498 2.739300
v -17.232424 2.084498 2.947659
v -17.232424 2.084498 2.739300
v -18.274218 0.084951 2.739300
v -18.274218 2.170696 2.739300
v -18.274218 0.084951 2.947658
v -18.274218 2.170696 2.947659
v -18.795115 0.084951 2.739300
v -18.795115 2.442142 2.947659
v -18.795115 2.442142 2.739300
v -18.795115 0.084951 2.947658
v -19.055563 0.084951 2.739300
v -19.055563 2.395113 2.947659
v -19.055563 2.395113 2.739300
v -19.055563 0.084951 2.947658
v -17.753321 2.442142 2.739300
v -17.753321 0.084951 2.947658
v -17.753321 0.084951 2.739300
v -17.753321 2.442142 2.947659
v -17.492872 2.395113 2.739300
v -17.492872 0.084951 2.947658
v -17.492872 0.084951 2.739300
v -17.492872 2.395113 2.947659
v -18.534666 2.355541 2.739300
v -18.534666 0.084951 2.947658
v -18.534666 0.084951 2.739300
v -18.534666 2.355541 2.947659
v -18.013769 0.084951 2.739300
v -18.013769 2.355541 2.947659
v -18.013769 2.355541 2.739300
v -18.013769 0.084951 2.947658
v -19.185787 0.084951 2.739300
v -19.185787 2.271791 2.947659
v -19.185787 2.271791 2.739300
v -17.362648 2.271791 2.739300
v -17.362648 0.084951 2.739300
v -17.362648 2.271791 2.947659
v -19.316011 0.230126 2.947658
v -19.185787 0.084951 2.947658
v -19.316011 0.230126 2.739300
v -17.362648 0.084951 2.947658
v -17.232424 0.230126 2.947658
v -17.232424 0.230126 2.739300
vn -0.0000 -0.0000 1.0000
vn -0.0000 -0.0000 -1.0000
vn 1.0000 -0.0000 -0.0000
vn -0.8210 0.5709 -0.0000
vn -0.5788 0.8155 -0.0000
vn -0.0000 -1.0000 -0.0000
vn 0.3155 0.9489 -0.0000
vn -0.1777 0.9841 -0.0000
vn 0.1777 0.9841 -0.0000
vn 0.6876 0.7261 -0.0000
vn 0.5788 0.8155 -0.0000
vn -0.3155 0.9489 -0.0000
vn -1.0000 -0.0000 -0.0000
vn -0.6876 0.7261 -0.0000
vn 0.8210 0.5709 -0.0000
vn -0.7444 -0.6677 -0.0000
vn 0.7444 -0.6677 -0.0000
vt 0.542255 0.444130
vt 0.109375 0.812500
vt 0.526928 0.444130
vt 0.062500 0.812500
vt 0.997067 0.444130
vt 0.125000 0.781250
vt 0.072117 0.444130
vt 0.171875 0.781250
vt 0.299522 0.007664
vt 0.046875 0.750000
vt 0.250000 0.531250
vt 0.234375 0.531250
vt 0.299522 0.462946
vt 0.769661 0.011539
vt 0.000000 0.750000
vt 0.296875 0.531250
vt 0.769661 0.462946
vt 0.187500 0.531250
vt 0.413225 0.007664
vt 0.046875 0.625000
vt 0.187500 0.671875
vt 0.109375 0.953125
vt 0.655958 0.522198
vt 0.234375 0.671875
vt 0.062500 0.953125
vt 0.413225 0.522198
vt 0.655958 0.011539
vt 0.000000 0.625000
vt 0.046875 0.578125
vt 0.470077 0.007664
vt 0.109375 0.906250
vt 0.599107 0.511932
vt 0.470077 0.511932
vt 0.062500 0.906250
vt 0.000000 0.578125
vt 0.599107 0.011539
vt 0.171875 0.921875
vt 0.185820 0.522198
vt 0.250000 0.671875
vt 0.000000 0.859375
vt 0.883364 0.011539
vt 0.046875 0.859375
vt 0.185820 0.007664
vt 0.125000 0.921875
vt 0.883364 0.522198
vt 0.296875 0.671875
vt 0.171875 0.875000
vt 0.128968 0.511932
vt 0.940215 0.011539
vt 0.000000 0.921875
vt 0.046875 0.921875
vt 0.128968 0.007663
vt 0.125000 0.875000
vt 0.940215 0.511932
vt 0.234375 0.609375
vt 0.356374 0.503294
vt 0.712810 0.011539
vt 0.000000 0.687500
vt 0.356374 0.007664
vt 0.046875 0.687500
vt 0.712809 0.503294
vt 0.187500 0.609375
vt 0.242671 0.007664
vt 0.046875 0.796875
vt 0.826512 0.503294
vt 0.296875 0.609375
vt 0.242671 0.503294
vt 0.250000 0.609375
vt 0.000000 0.796875
vt 0.826512 0.011539
vt 0.498502 0.007664
vt 0.046875 0.546875
vt 0.109375 0.859375
vt 0.570681 0.485013
vt 0.498502 0.485013
vt 0.062500 0.859375
vt 0.171875 0.828125
vt 0.100542 0.485013
vt 0.100542 0.007663
vt 0.046875 0.953125
vt 0.968641 0.485013
vt 0.125000 0.828125
vt 0.542255 0.039353
vt 0.109375 0.531250
vt 0.000000 0.500000
vt 0.570681 0.011539
vt 0.000000 0.546875
vt 0.526928 0.039353
vt 0.062500 0.531250
vt 0.046875 0.500000
vt 0.968641 0.011539
vt 0.000000 0.953125
vt 0.997067 0.039353
vt 0.125000 0.531250
vt 0.000000 1.000000
vt 0.171875 0.531250
vt 0.072117 0.039353
vt 0.046875 1.000000
s 0
f 44/90/2 38/78/2 5/5/2 43/87/2
f 46/95/2 47/97/2 7/9/2 42/85/2
f 37/75/3 45/92/3 6/7/3 39/79/3
f 48/100/4 8/12/4 7/10/4 47/98/4
f 39/80/5 6/8/5 5/6/5 38/77/5
f 35/72/6 10/15/6 12/20/6 34/70/6
f 31/64/7 9/14/7 11/19/7 30/62/7
f 36/74/2 34/69/2 12/21/2 11/18/2
f 31/63/3 29/60/3 10/17/3 9/13/3
f 17/34/3 19/37/3 15/30/3 13/23/3
f 17/33/7 13/24/7 16/32/7 20/39/7
f 29/59/8 15/28/8 14/25/8 32/66/8
f 30/61/2 32/65/2 14/27/2 16/31/2
f 37/76/7 17/33/7 20/39/7 44/91/7
f 37/75/3 39/79/3 19/37/3 17/34/3
f 15/29/9 19/38/9 18/35/9 14/26/9
f 16/31/2 14/27/2 18/36/2 20/40/2
f 26/53/2 28/58/2 24/49/2 22/45/2
f 25/51/10 21/41/10 24/48/10 28/57/10
f 33/68/7 23/46/7 22/44/7 36/73/7
f 33/67/3 35/71/3 21/42/3 23/47/3
f 40/81/11 25/51/11 28/57/11 42/86/11
f 46/95/2 42/85/2 28/58/2 26/53/2
f 23/46/7 27/55/7 26/54/7 22/44/7
f 23/47/3 21/42/3 25/52/3 27/56/3
f 11/18/2 12/21/2 32/65/2 30/61/2
f 10/16/12 29/59/12 32/66/12 12/22/12
f 13/23/3 15/30/3 29/60/3 31/63/3
f 13/24/7 31/64/7 30/62/7 16/32/7
f 9/13/3 10/17/3 35/71/3 33/67/3
f 9/14/7 33/68/7 36/73/7 11/19/7
f 22/45/2 24/49/2 34/69/2 36/74/2
f 21/43/13 35/72/13 34/70/13 24/50/13
f 43/88/14 5/6/14 6/8/14 45/93/14
f 19/38/15 39/80/15 38/77/15 18/35/15
f 20/40/2 18/36/2 38/78/2 44/90/2
f 41/83/3 40/82/3 8/11/3 48/101/3
f 8/12/16 40/81/16 42/86/16 7/10/16
f 27/55/7 41/84/7 46/96/7 26/54/7
f 27/56/3 25/52/3 40/82/3 41/83/3
f 37/76/17 44/91/17 43/89/17 45/94/17
f 46/96/18 41/84/18 48/102/18 47/99/18
o Cube
v -9.580505 -0.314027 1.362592
v -9.580505 6.743256 1.362592
v -9.580505 -0.314027 -0.637408
v -9.580505 6.743256 -0.637408
v -7.580505 -0.314027 1.362592
v -7.580505 6.743256 1.362592
v -7.580505 -0.314027 -0.637408
v -7.580505 6.743256 -0.637408
vn -1.0000 -0.0000 -0.0000
vn -0.0000 -0.0000 -1.0000
vn -0.0000 -0.0000 1.0000
vn -0.0000 1.0000 -0.0000
vt 0.375000 0.000000
vt 0.375000 1.000000
vt 0.625000 0.000000
vt 0.625000 1.000000
vt 0.875000 0.750000
vt 0.375000 0.250000
vt 0.625000 0.250000
vt 0.875000 0.500000
vt 0.375000 0.750000
vt 0.625000 0.750000
vt 0.375000 0.500000
vt 0.625000 0.500000
s 0
f 49/103/19 50/105/19 52/109/19 51/108/19
f 51/108/20 52/109/20 56/114/20 55/113/20
f 53/111/21 54/112/21 50/106/21 49/104/21
f 56/114/22 52/110/22 50/107/22 54/112/22
o Cube.002
v -7.703505 -0.314027 1.362592
v -7.703505 6.743256 1.362592
v -7.703505 -0.314027 -0.637408
v -7.703505 6.743256 -0.637408
v -0.897966 -0.314027 1.362592
v -0.897966 6.743256 1.362592
v -0.897966 -0.314027 -0.637408
v -0.897966 6.743256 -0.637408
vn -0.0000 -0.0000 -1.0000
vn 1.0000 -0.0000 -0.0000
vn -0.0000 -0.0000 1.0000
vn -0.0000 1.0000 -0.0000
vt 0.375000 1.000000
vt 0.625000 1.000000
vt 0.875000 0.750000
vt 0.375000 0.250000
vt 0.625000 0.250000
vt 0.875000 0.500000
vt 0.375000 0.750000
vt 0.625000 0.750000
vt 0.375000 0.500000
vt 0.625000 0.500000
s 0
f 59/118/23 60/119/23 64/124/23 63/123/23
f 63/123/24 64/124/24 62/122/24 61/121/24
f 61/121/25 62/122/25 58/116/25 57/115/25
f 64/124/26 60/120/26 58/117/26 62/122/26
