# Blender 3.3.0
# www.blender.org
mtllib asparagus.mtl
o Cylinder
v -0.000000 0.002178 -1.016705
v 0.001089 0.001886 -1.016705
v 0.001886 0.001089 -1.016705
v 0.002178 0.000000 -1.016705
v 0.001886 -0.001089 -1.016705
v 0.001089 -0.001886 -1.016705
v -0.000000 -0.002178 -1.016705
v -0.001089 -0.001886 -1.016705
v -0.001886 -0.001089 -1.016705
v -0.002178 0.000000 -1.016705
v -0.001886 0.001089 -1.016705
v -0.001089 0.001886 -1.016705
v -0.000000 0.042418 0.992912
v -0.000000 0.053489 0.972491
v 0.021209 0.036735 0.992912
v 0.026744 0.046323 0.972491
v 0.036735 0.021209 0.992912
v 0.046323 0.026744 0.972491
v 0.042418 -0.000000 0.992912
v 0.053489 -0.000000 0.972491
v 0.036735 -0.021209 0.992912
v 0.046323 -0.026744 0.972491
v 0.021209 -0.036735 0.992912
v 0.026744 -0.046323 0.972491
v -0.000000 -0.042418 0.992912
v -0.000000 -0.053489 0.972491
v -0.021209 -0.036735 0.992912
v -0.026744 -0.046323 0.972491
v -0.036735 -0.021209 0.992912
v -0.046323 -0.026744 0.972491
v -0.042418 -0.000000 0.992912
v -0.053489 -0.000000 0.972491
v -0.036735 0.021209 0.992912
v -0.046323 0.026744 0.972491
v -0.021209 0.036735 0.992912
v -0.026744 0.046323 0.972491
v -0.000000 0.020842 -0.977203
v 0.010421 0.018050 -0.977203
v -0.010421 0.018050 -0.977203
v 0.018050 0.010421 -0.977203
v 0.020842 0.000000 -0.977203
v 0.018050 -0.010421 -0.977203
v 0.010421 -0.018050 -0.977203
v -0.000000 -0.020842 -0.977203
v -0.010421 -0.018050 -0.977203
v -0.018050 -0.010421 -0.977203
v -0.020842 0.000000 -0.977203
v -0.018050 0.010421 -0.977203
v 0.002954 0.005116 -1.013927
v 0.005116 0.002954 -1.013927
v 0.005907 0.000000 -1.013927
v 0.005116 -0.002954 -1.013927
v 0.002954 -0.005116 -1.013927
v -0.000000 -0.005907 -1.013927
v -0.002954 -0.005116 -1.013927
v -0.005116 -0.002954 -1.013927
v -0.005907 0.000000 -1.013927
v -0.005116 0.002954 -1.013927
v -0.000000 0.005907 -1.013927
v -0.002954 0.005116 -1.013927
v 0.000000 0.043674 -0.916419
v -0.021837 0.037823 -0.916419
v 0.021837 0.037823 -0.916418
v 0.037823 0.021837 -0.916419
v 0.043674 0.000000 -0.916418
v 0.037823 -0.021837 -0.916419
v 0.021837 -0.037823 -0.916418
v 0.000000 -0.043674 -0.916418
v -0.021837 -0.037823 -0.916418
v -0.037823 -0.021837 -0.916419
v -0.043674 0.000000 -0.916418
v -0.037823 0.021837 -0.916419
v 0.000000 0.053277 -0.839685
v -0.026639 0.046139 -0.839685
v 0.026639 0.046139 -0.839685
v 0.046139 0.026639 -0.839684
v 0.053277 0.000000 -0.839685
v 0.046139 -0.026639 -0.839684
v 0.026639 -0.046139 -0.839685
v 0.000000 -0.053277 -0.839685
v -0.026639 -0.046139 -0.839685
v -0.046139 -0.026639 -0.839684
v -0.053277 0.000000 -0.839685
v -0.046139 0.026639 -0.839684
v 0.000000 0.047061 -0.792302
v -0.023531 0.040756 -0.792302
v 0.023531 0.040756 -0.792302
v 0.040756 0.023531 -0.792302
v 0.047061 0.000000 -0.792302
v 0.040756 -0.023531 -0.792302
v 0.023531 -0.040756 -0.792302
v 0.000000 -0.047061 -0.792302
v -0.023531 -0.040756 -0.792302
v -0.040756 -0.023531 -0.792302
v -0.047061 0.000000 -0.792302
v -0.040756 0.023531 -0.792302
v 0.000000 0.041693 -0.769409
v -0.020847 0.036107 -0.769409
v 0.020847 0.036107 -0.769409
v 0.036107 0.020847 -0.769409
v 0.041693 0.000000 -0.769409
v 0.036107 -0.020847 -0.769409
v 0.020847 -0.036107 -0.769409
v 0.000000 -0.041693 -0.769409
v -0.020847 -0.036107 -0.769409
v -0.036107 -0.020847 -0.769409
v -0.041693 0.000000 -0.769409
v -0.036107 0.020847 -0.769409
v 0.039657 0.022896 -0.164154
v 0.022895 0.039655 -0.164450
v 0.044424 0.039694 -0.195812
v 0.031468 0.032442 -0.206419
v 0.000000 0.044000 -0.428693
v -0.022002 0.038108 -0.428264
v -0.012757 0.052630 -0.462074
v -0.011082 0.040747 -0.470716
v 0.000000 0.043327 -0.528068
v 0.021664 0.037524 -0.527930
v 0.013189 0.047968 -0.553412
v 0.011493 0.040046 -0.557860
v -0.038914 0.022467 -0.290763
v -0.044927 0.000000 -0.291851
v -0.042235 0.009427 -0.316332
v -0.042218 0.009108 -0.331566
v -0.043480 0.000000 -0.505491
v -0.037660 -0.021743 -0.504725
v -0.049561 -0.014980 -0.539290
v -0.040227 -0.011195 -0.543016
v 0.044462 0.000000 -0.360594
v 0.038513 -0.022235 -0.359210
v 0.041471 -0.010564 -0.384185
v 0.041235 -0.011138 -0.396314
v 0.021908 -0.037945 -0.455972
v 0.037944 -0.021907 -0.456157
v 0.036413 -0.036058 -0.488583
v 0.030132 -0.029349 -0.496231
v 0.000000 -0.044746 -0.318600
v 0.022372 -0.038749 -0.318890
v 0.008967 -0.042192 -0.340978
v 0.007127 -0.042610 -0.351938
v -0.021258 -0.036820 -0.647892
v -0.036829 -0.021263 -0.646406
v -0.036340 -0.032171 -0.676672
v -0.029184 -0.028578 -0.682093
v -0.036889 0.021298 -0.636063
v -0.021307 0.036905 -0.633354
v -0.034112 0.038079 -0.665616
v -0.027139 0.030742 -0.669148
v 0.042777 0.000000 -0.609301
v 0.037042 0.021386 -0.610040
v 0.050618 0.012469 -0.647709
v 0.039799 0.010077 -0.650333
v 0.021037 -0.036438 -0.713062
v 0.036442 -0.021040 -0.712282
v 0.034184 -0.037168 -0.743776
v 0.029003 -0.028181 -0.744495
v 0.033008 0.045475 -0.812137
v 0.033052 0.035405 -0.815578
v 0.014940 0.038671 -0.932997
v 0.008576 0.032124 -0.941052
v -0.017629 0.050953 -0.871833
v -0.010989 0.045577 -0.877685
v -0.042416 0.039847 -0.821154
v -0.034637 0.035778 -0.826501
v -0.033497 0.015435 -0.944782
v -0.026463 0.008850 -0.955926
v -0.051930 -0.017582 -0.884724
v -0.044272 -0.011131 -0.887813
v -0.039792 -0.043348 -0.823162
v -0.036230 -0.034814 -0.830008
v -0.015185 -0.035522 -0.946088
v -0.007853 -0.028661 -0.950787
v 0.018466 -0.049142 -0.873873
v 0.012715 -0.044145 -0.885431
v 0.039093 -0.041405 -0.825562
v 0.037574 -0.033280 -0.828950
v 0.038179 -0.007498 -0.935419
v 0.032213 -0.004829 -0.943486
v 0.050415 0.019320 -0.872054
v 0.044553 0.013293 -0.880934
vn -0.2588 0.9659 -0.0065
vn 0.9659 0.2588 -0.0065
vn 0.9659 -0.2588 -0.0065
vn 0.7071 -0.7071 -0.0065
vn 0.2588 -0.9659 -0.0065
vn -0.2588 -0.9659 -0.0065
vn -0.7071 -0.7071 -0.0065
vn -0.9659 -0.2588 -0.0065
vn -0.9659 0.2588 -0.0065
vn -0.7071 0.7071 -0.0065
vn 0.2588 0.9659 -0.0065
vn 0.7071 0.7071 -0.0077
vn -0.0000 -0.0000 -1.0000
vn 0.2293 0.8557 0.4639
vn 0.6264 0.6264 0.4639
vn 0.8557 0.2293 0.4639
vn 0.8557 -0.2293 0.4639
vn 0.6264 -0.6264 0.4639
vn 0.2293 -0.8557 0.4639
vn -0.2293 -0.8557 0.4639
vn -0.6264 -0.6264 0.4639
vn -0.8557 -0.2293 0.4639
vn -0.8557 0.2293 0.4639
vn -0.6264 0.6264 0.4639
vn -0.2293 0.8557 0.4639
vn -0.0000 -0.0000 1.0000
vn 0.6582 0.6581 -0.3656
vn 0.2409 0.8991 -0.3656
vn -0.6581 0.6582 -0.3656
vn -0.8990 0.2409 -0.3656
vn -0.8990 -0.2409 -0.3656
vn -0.6582 -0.6581 -0.3656
vn -0.2409 -0.8990 -0.3656
vn 0.2409 -0.8990 -0.3656
vn 0.6582 -0.6581 -0.3656
vn 0.8990 -0.2409 -0.3656
vn 0.8990 0.2409 -0.3656
vn -0.2409 0.8990 -0.3656
vn -0.1580 0.5898 -0.7919
vn 0.5898 0.1580 -0.7919
vn 0.5899 -0.1580 -0.7919
vn 0.4318 -0.4318 -0.7919
vn 0.1581 -0.5898 -0.7919
vn -0.1581 -0.5898 -0.7919
vn -0.4318 -0.4318 -0.7919
vn -0.5899 -0.1580 -0.7919
vn -0.5898 0.1580 -0.7919
vn -0.4318 0.4318 -0.7919
vn 0.1580 0.5898 -0.7919
vn 0.4318 0.4318 -0.7919
vn 0.6647 0.6647 -0.3411
vn 0.2433 0.9080 -0.3411
vn -0.6647 0.6647 -0.3411
vn -0.9080 0.2433 -0.3411
vn -0.9080 -0.2433 -0.3411
vn -0.6647 -0.6647 -0.3411
vn -0.2433 -0.9080 -0.3411
vn 0.2433 -0.9080 -0.3411
vn 0.6647 -0.6647 -0.3411
vn 0.9080 -0.2433 -0.3411
vn 0.9080 0.2433 -0.3411
vn -0.2433 0.9080 -0.3411
vn 0.7020 0.7020 -0.1200
vn 0.2569 0.9589 -0.1200
vn -0.7020 0.7020 -0.1200
vn -0.9589 0.2569 -0.1200
vn -0.9589 -0.2569 -0.1200
vn -0.7020 -0.7020 -0.1200
vn -0.2569 -0.9589 -0.1200
vn 0.2569 -0.9589 -0.1200
vn 0.7020 -0.7020 -0.1200
vn 0.9589 -0.2569 -0.1200
vn 0.9589 0.2569 -0.1200
vn -0.2569 0.9589 -0.1200
vn 0.7015 0.7015 0.1257
vn 0.2568 0.9583 0.1257
vn -0.7015 0.7015 0.1257
vn -0.9583 0.2568 0.1257
vn -0.9583 -0.2568 0.1257
vn -0.7015 -0.7015 0.1257
vn -0.2568 -0.9583 0.1257
vn 0.2568 -0.9583 0.1257
vn 0.7015 -0.7015 0.1257
vn 0.9583 -0.2568 0.1257
vn 0.9583 0.2568 0.1257
vn -0.2568 0.9583 0.1257
vn 0.6896 0.6896 0.2209
vn 0.2524 0.9421 0.2209
vn -0.6896 0.6896 0.2209
vn -0.9421 0.2524 0.2209
vn -0.9421 -0.2524 0.2209
vn -0.6896 -0.6896 0.2209
vn -0.2524 -0.9421 0.2209
vn 0.2524 -0.9421 0.2209
vn 0.6896 -0.6896 0.2209
vn 0.9421 -0.2524 0.2209
vn 0.9421 0.2524 0.2209
vn -0.2524 0.9421 0.2209
vn 0.6327 0.6405 0.4352
vn 0.7071 0.7071 -0.0065
vn 0.4272 0.4131 -0.8043
vn 0.9095 0.3207 -0.2647
vn -0.2385 0.9143 0.3275
vn 0.9461 -0.0210 -0.3233
vn 0.2454 0.9229 0.2967
vn -0.4569 0.8407 -0.2904
vn -0.9314 -0.2397 0.2738
vn -0.5217 -0.8063 -0.2787
vn 0.6835 -0.6803 0.2646
vn -0.5924 0.7548 -0.2816
vn -0.6744 -0.6980 0.2407
vn 0.6475 0.7264 -0.2306
vn -0.7004 0.6469 0.3015
vn 0.2661 -0.9315 -0.2481
vn 0.9268 0.2580 0.2730
vn -0.8051 -0.4909 -0.3330
vn 0.6664 -0.6820 0.3015
vn 0.9585 0.0959 -0.2683
vn 0.6309 0.6309 0.4516
vn 0.1840 0.6866 -0.7034
vn 0.2584 0.9643 -0.0582
vn 0.4290 0.8531 -0.2969
vn -0.2581 0.9634 0.0719
vn 0.3175 0.9182 -0.2367
vn -0.6471 0.6471 0.4032
vn 0.6042 0.7921 -0.0866
vn -0.9461 0.2535 -0.2015
vn -0.6821 0.6740 -0.2835
vn -0.9634 -0.2581 0.0720
vn -0.9509 0.2462 -0.1878
vn -0.6491 -0.6491 0.3966
vn -0.7149 0.6910 -0.1067
vn -0.2566 -0.9575 -0.1318
vn -0.2774 -0.9244 -0.2616
vn 0.2588 -0.9657 0.0230
vn -0.8588 -0.3256 -0.3955
vn 0.6685 -0.6685 0.3258
vn 0.4091 -0.7320 -0.5448
vn 0.9511 -0.2548 -0.1745
vn 0.8679 -0.3890 -0.3089
vn 0.9636 0.2582 0.0689
vn -0.9682 0.0427 -0.2464
vn 0.8334 0.4911 -0.2537
vn 0.2662 -0.9246 -0.2725
vn -0.8448 0.3879 -0.3686
vn -0.1430 0.9503 -0.2765
vn 0.8377 0.4594 -0.2953
vn 0.2518 -0.9259 -0.2815
vn -0.7553 -0.5369 -0.3758
vn -0.9062 0.1332 -0.4013
vn -0.7454 -0.5962 -0.2982
vn -0.6149 -0.7011 -0.3611
vn -0.8780 -0.2107 -0.4297
vn 0.5703 -0.7881 -0.2318
vn 0.7389 -0.5815 -0.3405
vn 0.4454 -0.7787 -0.4419
vn 0.8681 0.4315 -0.2454
vn 0.9836 0.1335 -0.1209
vn 0.7737 0.4802 -0.4133
vn -0.4799 0.8400 -0.2533
vt 0.750000 0.490000
vt 0.000000 0.500000
vt 1.000000 0.500000
vt 0.870000 0.457846
vt 0.916667 0.500000
vt 0.957846 0.370000
vt 0.833333 0.500000
vt 0.990000 0.250000
vt 0.750000 0.500000
vt 0.957846 0.130000
vt 0.666667 0.500000
vt 0.870000 0.042154
vt 0.583333 0.500000
vt 0.750000 0.010000
vt 0.500000 0.500000
vt 0.630000 0.042154
vt 0.416667 0.500000
vt 0.542154 0.130000
vt 0.333333 0.500000
vt 0.510000 0.250000
vt 0.250000 0.500000
vt 0.542154 0.370000
vt 0.166667 0.500000
vt 0.630000 0.457846
vt 0.083333 0.500000
vt 0.250000 0.482942
vt 0.250440 0.489882
vt 0.249560 0.489882
vt 0.000000 0.993123
vt 1.000000 0.993123
vt 0.366471 0.451734
vt 0.369560 0.457964
vt 0.370322 0.457524
vt 0.916667 0.993123
vt 0.451734 0.366471
vt 0.457524 0.370322
vt 0.457964 0.369560
vt 0.833333 0.993123
vt 0.482942 0.250000
vt 0.489882 0.250440
vt 0.489882 0.249560
vt 0.750000 0.993123
vt 0.451734 0.133529
vt 0.457964 0.130440
vt 0.457524 0.129678
vt 0.666667 0.993123
vt 0.366471 0.048266
vt 0.370322 0.042476
vt 0.369560 0.042036
vt 0.583333 0.993123
vt 0.250000 0.017058
vt 0.250440 0.010118
vt 0.249560 0.010118
vt 0.500000 0.993123
vt 0.133529 0.048266
vt 0.130440 0.042036
vt 0.129678 0.042476
vt 0.416667 0.993123
vt 0.048266 0.133529
vt 0.042476 0.129678
vt 0.042036 0.130440
vt 0.333333 0.993123
vt 0.017058 0.250000
vt 0.010118 0.249560
vt 0.010118 0.250440
vt 0.250000 0.993123
vt 0.048266 0.366471
vt 0.042036 0.369560
vt 0.042476 0.370322
vt 0.166667 0.993123
vt 0.133529 0.451734
vt 0.129678 0.457524
vt 0.130440 0.457964
vt 0.083333 0.993123
vt 1.000000 0.512759
vt 0.000000 0.512759
vt 0.916667 0.512759
vt 0.083333 0.512759
vt 0.833333 0.512759
vt 0.750000 0.512759
vt 0.666667 0.512759
vt 0.583333 0.512759
vt 0.500000 0.512759
vt 0.416667 0.512759
vt 0.333333 0.512759
vt 0.250000 0.512759
vt 0.166667 0.512759
vt 0.916667 0.506380
vt 0.833333 0.506380
vt 0.750000 0.506380
vt 0.666667 0.506380
vt 0.583333 0.506380
vt 0.500000 0.506380
vt 0.416667 0.506379
vt 0.333333 0.506380
vt 0.250000 0.506380
vt 0.166667 0.506380
vt 0.000000 0.506379
vt 1.000000 0.506379
vt 0.083333 0.506379
vt 0.000000 0.518399
vt 1.000000 0.518399
vt 0.083333 0.518399
vt 0.916667 0.518399
vt 0.833333 0.518399
vt 0.750000 0.518399
vt 0.666667 0.518399
vt 0.583333 0.518399
vt 0.500000 0.518399
vt 0.416667 0.518399
vt 0.333333 0.518399
vt 0.250000 0.518399
vt 0.166667 0.518399
vt 1.000000 0.523680
vt 0.000000 0.523680
vt 0.083333 0.523680
vt 0.916667 0.523680
vt 0.833333 0.523680
vt 0.750000 0.523680
vt 0.666667 0.523680
vt 0.583333 0.523680
vt 0.500000 0.523680
vt 0.416667 0.523680
vt 0.333333 0.523680
vt 0.250000 0.523680
vt 0.166667 0.523680
vt 1.000000 0.529437
vt 0.000000 0.529437
vt 0.083333 0.529437
vt 0.916667 0.529437
vt 0.833333 0.529437
vt 0.750000 0.529437
vt 0.666667 0.529437
vt 0.583333 0.529437
vt 0.500000 0.529437
vt 0.416667 0.529437
vt 0.333333 0.529437
vt 0.250000 0.529437
vt 0.166667 0.529437
vt 1.000000 0.535258
vt 0.000000 0.535258
vt 0.083333 0.535258
vt 0.916667 0.535258
vt 0.833333 0.535258
vt 0.750000 0.535258
vt 0.666667 0.535258
vt 0.583333 0.535257
vt 0.500000 0.535258
vt 0.416667 0.535258
vt 0.333333 0.535258
vt 0.250000 0.535258
vt 0.166667 0.535258
vt 0.833333 0.694351
vt 0.916667 0.694273
vt 0.872492 0.685519
vt 0.877863 0.683188
vt 0.000000 0.624816
vt 1.000000 0.624816
vt 0.083333 0.624929
vt 0.040934 0.617757
vt 0.042251 0.613770
vt 0.000000 0.598695
vt 1.000000 0.598695
vt 0.916667 0.598731
vt 0.954872 0.593628
vt 0.955569 0.590864
vt 0.166667 0.661072
vt 0.250000 0.660786
vt 0.214911 0.654351
vt 0.216023 0.650346
vt 0.250000 0.604629
vt 0.333333 0.604831
vt 0.291829 0.598429
vt 0.293169 0.594766
vt 0.750000 0.642716
vt 0.666667 0.643080
vt 0.710263 0.636515
vt 0.708019 0.633327
vt 0.583333 0.617646
vt 0.666667 0.617597
vt 0.626206 0.610101
vt 0.627053 0.607064
vt 0.500000 0.653754
vt 0.583333 0.653678
vt 0.533497 0.647872
vt 0.526652 0.644991
vt 0.416667 0.567199
vt 0.333333 0.567589
vt 0.371886 0.560939
vt 0.373358 0.558209
vt 0.166667 0.570308
vt 0.083333 0.571020
vt 0.114607 0.564900
vt 0.115265 0.561612
vt 0.750000 0.577343
vt 0.833333 0.577148
vt 0.792106 0.569603
vt 0.789507 0.566557
vt 0.583333 0.550068
vt 0.666667 0.550274
vt 0.625922 0.544257
vt 0.627238 0.541806
vt 0.881108 0.527608
vt 0.880363 0.526609
vt 0.950993 0.516940
vt 0.958476 0.516113
vt 0.032955 0.522049
vt 0.037718 0.521065
vt 0.123325 0.526653
vt 0.122476 0.525282
vt 0.200261 0.515713
vt 0.198489 0.514733
vt 0.286701 0.521073
vt 0.289237 0.520368
vt 0.374528 0.526415
vt 0.371897 0.524856
vt 0.451170 0.515829
vt 0.457434 0.515210
vt 0.545913 0.521395
vt 0.544591 0.520532
vt 0.626129 0.526567
vt 0.634429 0.524984
vt 0.717562 0.516466
vt 0.726058 0.515887
vt 0.794391 0.521442
vt 0.796082 0.520841
s 0
f 98/142/1 146/192/1 114/159/1 116/161/1 113/157/1 117/162/1 97/141/1
f 100/144/2 150/196/2 152/198/2 149/195/2 101/145/2
f 101/145/3 149/195/3 129/175/3 132/178/3 130/176/3 134/180/3 154/200/3 102/146/3
f 102/146/4 154/200/4 156/202/4 153/199/4 103/147/4
f 103/147/5 153/199/5 133/179/5 138/184/5 140/186/5 137/183/5 104/148/5
f 104/148/6 137/183/6 26/54/6 28/58/6 141/187/6 105/149/6
f 105/149/7 141/187/7 144/190/7 142/188/7 106/150/7
f 106/150/8 142/188/8 126/172/8 128/174/8 125/171/8 107/151/8
f 107/151/9 125/171/9 122/168/9 124/170/9 121/167/9 145/191/9 108/152/9
f 108/152/10 145/191/10 148/194/10 146/192/10 98/142/10
f 97/140/11 117/163/11 120/166/11 118/164/11 99/143/11
f 99/143/12 118/164/12 110/154/12 112/156/12 109/153/12 150/196/12 100/144/12
f 1/1/13 2/4/13 3/6/13 4/8/13 5/10/13 6/12/13 7/14/13 8/16/13 9/18/13 10/20/13 11/22/13 12/24/13
f 16/32/14 14/27/14 13/26/14 15/31/14
f 18/36/15 16/33/15 15/31/15 17/35/15
f 20/40/16 18/37/16 17/35/16 19/39/16
f 22/44/17 20/41/17 19/39/17 21/43/17
f 24/48/18 22/45/18 21/43/18 23/47/18
f 26/52/19 24/49/19 23/47/19 25/51/19
f 28/56/20 26/53/20 25/51/20 27/55/20
f 30/60/21 28/57/21 27/55/21 29/59/21
f 32/64/22 30/61/22 29/59/22 31/63/22
f 34/68/23 32/65/23 31/63/23 33/67/23
f 36/72/24 34/69/24 33/67/24 35/71/24
f 14/28/25 36/73/25 35/71/25 13/26/25
f 15/31/26 13/26/26 35/71/26 33/67/26 31/63/26 29/59/26 27/55/26 25/51/26 23/47/26 21/43/26 19/39/26 17/35/26
f 49/88/27 38/77/27 40/79/27 50/89/27
f 59/99/28 37/75/28 38/77/28 49/88/28
f 58/97/29 48/87/29 39/78/29 60/100/29
f 57/96/30 47/86/30 48/87/30 58/97/30
f 56/95/31 46/85/31 47/86/31 57/96/31
f 55/94/32 45/84/32 46/85/32 56/95/32
f 54/93/33 44/83/33 45/84/33 55/94/33
f 53/92/34 43/82/34 44/83/34 54/93/34
f 52/91/35 42/81/35 43/82/35 53/92/35
f 51/90/36 41/80/36 42/81/36 52/91/36
f 50/89/37 40/79/37 41/80/37 51/90/37
f 60/100/38 39/78/38 37/76/38 59/98/38
f 12/25/39 60/100/39 59/98/39 1/2/39
f 3/7/40 50/89/40 51/90/40 4/9/40
f 4/9/41 51/90/41 52/91/41 5/11/41
f 5/11/42 52/91/42 53/92/42 6/13/42
f 6/13/43 53/92/43 54/93/43 7/15/43
f 7/15/44 54/93/44 55/94/44 8/17/44
f 8/17/45 55/94/45 56/95/45 9/19/45
f 9/19/46 56/95/46 57/96/46 10/21/46
f 10/21/47 57/96/47 58/97/47 11/23/47
f 11/23/48 58/97/48 60/100/48 12/25/48
f 1/3/49 59/99/49 49/88/49 2/5/49
f 2/5/50 49/88/50 50/89/50 3/7/50
f 38/77/51 63/104/51 64/105/51 40/79/51
f 37/75/52 61/102/52 160/206/52 63/104/52 38/77/52
f 48/87/53 72/113/53 62/103/53 39/78/53
f 47/86/54 71/112/54 166/212/54 72/113/54 48/87/54
f 46/85/55 70/111/55 71/112/55 47/86/55
f 45/84/56 69/110/56 70/111/56 46/85/56
f 44/83/57 68/109/57 172/218/57 69/110/57 45/84/57
f 43/82/58 67/108/58 68/109/58 44/83/58
f 42/81/59 66/107/59 67/108/59 43/82/59
f 41/80/60 65/106/60 178/224/60 66/107/60 42/81/60
f 40/79/61 64/105/61 65/106/61 41/80/61
f 39/78/62 62/103/62 61/101/62 37/76/62
f 63/104/63 75/117/63 76/118/63 64/105/63
f 61/102/64 73/114/64 75/117/64 63/104/64
f 72/113/65 84/126/65 74/116/65 62/103/65
f 71/112/66 83/125/66 84/126/66 72/113/66
f 70/111/67 82/124/67 168/214/67 83/125/67 71/112/67
f 69/110/68 81/123/68 82/124/68 70/111/68
f 68/109/69 80/122/69 81/123/69 69/110/69
f 67/108/70 79/121/70 174/220/70 80/122/70 68/109/70
f 66/107/71 78/120/71 79/121/71 67/108/71
f 65/106/72 77/119/72 78/120/72 66/107/72
f 64/105/73 76/118/73 180/226/73 77/119/73 65/106/73
f 62/103/74 74/116/74 162/208/74 73/115/74 61/101/74
f 75/117/75 87/130/75 158/204/75 88/131/75 76/118/75
f 73/114/76 85/127/76 87/130/76 75/117/76
f 84/126/77 96/139/77 164/210/77 86/129/77 74/116/77
f 83/125/78 95/138/78 96/139/78 84/126/78
f 82/124/79 94/137/79 95/138/79 83/125/79
f 81/123/80 93/136/80 170/216/80 94/137/80 82/124/80
f 80/122/81 92/135/81 93/136/81 81/123/81
f 79/121/82 91/134/82 92/135/82 80/122/82
f 78/120/83 90/133/83 176/222/83 91/134/83 79/121/83
f 77/119/84 89/132/84 90/133/84 78/120/84
f 76/118/85 88/131/85 89/132/85 77/119/85
f 74/116/86 86/129/86 85/128/86 73/115/86
f 87/130/87 99/143/87 100/144/87 88/131/87
f 85/127/88 97/140/88 99/143/88 87/130/88
f 96/139/89 108/152/89 98/142/89 86/129/89
f 95/138/90 107/151/90 108/152/90 96/139/90
f 94/137/91 106/150/91 107/151/91 95/138/91
f 93/136/92 105/149/92 106/150/92 94/137/92
f 92/135/93 104/148/93 105/149/93 93/136/93
f 91/134/94 103/147/94 104/148/94 92/135/94
f 90/133/95 102/146/95 103/147/95 91/134/95
f 89/132/96 101/145/96 102/146/96 90/133/96
f 88/131/97 100/144/97 101/145/97 89/132/97
f 86/129/98 98/142/98 97/141/98 85/128/98
f 109/153/99 111/155/99 110/154/99
f 109/153/100 110/154/100 16/34/100 18/38/100
f 109/153/101 112/156/101 110/154/101 111/155/101
f 113/157/1 114/159/1 36/74/1 14/29/1
f 113/157/102 116/161/102 115/160/102
f 115/160/103 114/159/103 113/157/103
f 118/164/104 120/166/104 119/165/104
f 119/165/105 117/163/105 118/164/105
f 118/164/11 117/163/11 113/158/11 14/30/11 16/34/11 110/154/11
f 121/167/9 124/170/9 123/169/9
f 123/169/9 122/168/9 121/167/9
f 121/167/9 122/168/9 32/66/9 34/70/9
f 125/171/106 128/174/106 127/173/106
f 127/173/107 126/172/107 125/171/107
f 125/171/8 126/172/8 30/62/8 32/66/8 122/168/8
f 130/176/3 132/178/3 131/177/3
f 131/177/3 129/175/3 130/176/3
f 130/176/3 129/175/3 20/42/3 22/46/3
f 133/179/108 136/182/108 135/181/108
f 135/181/109 134/180/109 133/179/109
f 133/179/4 134/180/4 130/176/4 22/46/4 24/50/4 138/184/4
f 137/183/5 140/186/5 139/185/5
f 139/185/5 138/184/5 137/183/5
f 137/183/5 138/184/5 24/50/5 26/54/5
f 142/188/110 144/190/110 143/189/110
f 143/189/111 141/187/111 142/188/111
f 142/188/7 141/187/7 28/58/7 30/62/7 126/172/7
f 146/192/10 145/191/10 121/167/10 34/70/10 36/74/10 114/159/10
f 146/192/112 148/194/112 147/193/112
f 147/193/113 145/191/113 146/192/113
f 149/195/114 152/198/114 151/197/114
f 151/197/115 150/196/115 149/195/115
f 149/195/2 150/196/2 109/153/2 18/38/2 20/42/2 129/175/2
f 153/199/116 156/202/116 155/201/116
f 155/201/117 154/200/117 153/199/117
f 153/199/4 154/200/4 134/180/4 136/182/4 133/179/4
f 88/131/118 158/204/118 157/203/118
f 157/203/119 87/130/119 88/131/119
f 63/104/120 160/206/120 61/102/120 159/205/120
f 159/205/121 61/102/121 63/104/121
f 73/115/122 162/208/122 161/207/122
f 161/207/123 74/116/123 73/115/123
f 86/129/124 164/210/124 163/209/124
f 163/209/125 96/139/125 86/129/125
f 72/113/126 166/212/126 165/211/126
f 165/211/127 71/112/127 72/113/127
f 83/125/128 168/214/128 167/213/128
f 167/213/129 82/124/129 83/125/129
f 94/137/130 170/216/130 169/215/130
f 169/215/131 93/136/131 94/137/131
f 69/110/132 172/218/132 171/217/132
f 171/217/133 68/109/133 69/110/133
f 80/122/134 174/220/134 173/219/134
f 173/219/135 79/121/135 80/122/135
f 91/134/136 176/222/136 175/221/136
f 175/221/137 90/133/137 91/134/137
f 66/107/138 178/224/138 177/223/138
f 177/223/139 65/106/139 66/107/139
f 77/119/140 180/226/140 179/225/140
f 179/225/141 76/118/141 77/119/141
f 115/160/142 116/161/142 114/159/142
f 131/177/3 132/178/3 129/175/3
f 139/185/5 140/186/5 138/184/5
f 123/169/9 124/170/9 122/168/9
f 135/181/143 136/182/143 134/180/143
f 127/173/144 128/174/144 126/172/144
f 119/165/145 120/166/145 117/163/145
f 151/197/146 152/198/146 150/196/146
f 155/201/147 156/202/147 154/200/147
f 143/189/148 144/190/148 141/187/148
f 147/193/149 148/194/149 145/191/149
f 157/203/150 158/204/150 87/130/150
f 161/207/151 162/208/151 74/116/151
f 163/209/152 164/210/152 96/139/152
f 165/211/153 166/212/153 71/112/153
f 167/213/154 168/214/154 82/124/154
f 169/215/155 170/216/155 93/136/155
f 171/217/156 172/218/156 68/109/156
f 173/219/157 174/220/157 79/121/157
f 175/221/158 176/222/158 90/133/158
f 177/223/159 178/224/159 65/106/159
f 179/225/160 180/226/160 76/118/160
