# Blender 3.3.0
# www.blender.org
mtllib untitled.mtl
o Cube
v 0.332039 -0.027716 -1.718025
v 0.332039 0.027716 -1.718025
v 0.315891 -0.027716 1.718025
v 0.315891 0.027716 1.718025
v -0.315697 -0.027716 -1.718025
v -0.315697 0.027716 -1.718025
v -0.330276 -0.027716 1.718025
v -0.330276 0.027716 1.718025
v -0.373293 0.027716 0.000000
v 0.265457 -0.027716 0.000000
v -0.373293 -0.027716 0.000000
v 0.265457 0.027716 0.000000
v -0.257241 -0.027716 -0.859013
v 0.387971 0.027716 -0.859013
v -0.257241 0.027716 -0.859013
v 0.387971 -0.027716 -0.859013
v -0.416972 0.027716 -0.429506
v 0.221045 -0.027716 -0.429506
v -0.416972 -0.027716 -0.429506
v 0.221045 0.027716 -0.429506
v -0.207306 -0.027716 -1.288519
v 0.437294 0.027716 -1.288519
v -0.207306 0.027716 -1.288519
v 0.437294 -0.027716 -1.288519
v -0.308679 0.027716 0.859013
v 0.307659 -0.027716 0.859013
v -0.308679 -0.027716 0.859013
v 0.307659 0.027716 0.859013
v -0.220554 -0.027716 0.429506
v 0.409019 0.027716 0.429506
v -0.220554 0.027716 0.429506
v 0.409019 -0.027716 0.429506
v -0.412478 0.027716 1.288519
v 0.210033 -0.027716 1.288519
v -0.412478 -0.027716 1.288519
v 0.210033 0.027716 1.288519
v -0.378956 0.027716 1.503272
v 0.253202 -0.027716 1.503272
v -0.378956 -0.027716 1.503272
v 0.253202 0.027716 1.503272
v -0.402821 -0.027716 1.073766
v 0.216075 0.027716 1.073766
v -0.402821 0.027716 1.073766
v 0.216075 -0.027716 1.073766
v -0.224322 0.027716 0.644260
v 0.402185 -0.027716 0.644260
v -0.224322 -0.027716 0.644260
v 0.402185 0.027716 0.644260
v -0.265465 -0.027716 0.214753
v 0.369462 0.027716 0.214753
v -0.265465 0.027716 0.214753
v 0.369462 -0.027716 0.214753
v -0.416972 0.027716 -0.214753
v 0.221045 -0.027716 -0.214753
v -0.416972 -0.027716 -0.214753
v 0.221045 0.027716 -0.214753
v -0.373414 -0.027716 -0.644260
v 0.268138 0.027716 -0.644260
v -0.373414 0.027716 -0.644260
v 0.268138 -0.027716 -0.644260
v -0.207306 0.027716 -1.073766
v 0.437294 -0.027716 -1.073766
v -0.207306 -0.027716 -1.073766
v 0.437294 0.027716 -1.073766
v -0.251508 -0.027716 -1.503272
v 0.394371 0.027716 -1.503272
v -0.251508 0.027716 -1.503272
v 0.394371 -0.027716 -1.503272
vn -0.0000 -1.0000 -0.0000
vn -0.0000 -0.0000 1.0000
vn -0.9581 -0.0000 0.2864
vn -0.0000 1.0000 -0.0000
vn 0.9599 -0.0000 -0.2802
vn -0.0000 -0.0000 -1.0000
vn 0.9793 -0.0000 -0.2025
vn -0.8937 -0.0000 0.4487
vn 0.9746 -0.0000 0.2238
vn -0.8796 -0.0000 -0.4758
vn -1.0000 -0.0000 -0.0000
vn 0.9768 -0.0000 0.2142
vn 0.9806 -0.0000 -0.1960
vn -0.9159 -0.0000 -0.4015
vn 0.9153 -0.0000 0.4029
vn 0.9835 -0.0000 -0.1811
vn -0.9998 -0.0000 -0.0175
vn -0.9880 -0.0000 0.1542
vn 0.9996 -0.0000 0.0281
vn -0.9753 -0.0000 0.2211
vn 0.9804 -0.0000 -0.1971
vn 0.9198 -0.0000 0.3923
vn -0.9990 -0.0000 -0.0449
vn -0.9308 -0.0000 -0.3656
vn 0.9995 -0.0000 0.0318
vn 0.9000 -0.0000 -0.4359
vn -0.9788 -0.0000 0.2047
vn -0.9799 -0.0000 0.1993
vn 1.0000 -0.0000 -0.0000
vn 0.8732 -0.0000 0.4873
vn -0.9800 -0.0000 -0.1988
vn -0.9740 -0.0000 -0.2265
vn 0.9604 -0.0000 -0.2787
vn -0.9795 -0.0000 0.2016
vt 0.625000 0.500000
vt 0.375000 0.500000
vt 0.625000 0.750000
vt 0.375000 0.750000
vt 0.625000 0.250000
vt 0.875000 0.500000
vt 0.375000 0.250000
vt 0.125000 0.500000
vt 0.875000 0.750000
vt 0.625000 1.000000
vt 0.625000 0.000000
vt 0.375000 1.000000
vt 0.125000 0.750000
vt 0.375000 0.000000
vt 0.125000 0.625000
vt 0.375000 0.125000
vt 0.625000 0.625000
vt 0.875000 0.625000
vt 0.625000 0.125000
vt 0.375000 0.625000
vt 0.875000 0.562500
vt 0.625000 0.187500
vt 0.375000 0.562500
vt 0.125000 0.562500
vt 0.375000 0.187500
vt 0.625000 0.562500
vt 0.125000 0.593750
vt 0.375000 0.156250
vt 0.625000 0.593750
vt 0.875000 0.593750
vt 0.625000 0.156250
vt 0.375000 0.593750
vt 0.875000 0.531250
vt 0.625000 0.218750
vt 0.375000 0.531250
vt 0.125000 0.531250
vt 0.375000 0.218750
vt 0.625000 0.531250
vt 0.125000 0.687500
vt 0.375000 0.062500
vt 0.625000 0.687500
vt 0.875000 0.687500
vt 0.625000 0.062500
vt 0.375000 0.687500
vt 0.875000 0.656250
vt 0.625000 0.093750
vt 0.375000 0.656250
vt 0.125000 0.656250
vt 0.375000 0.093750
vt 0.625000 0.656250
vt 0.125000 0.718750
vt 0.375000 0.031250
vt 0.625000 0.718750
vt 0.875000 0.718750
vt 0.625000 0.031250
vt 0.375000 0.718750
vt 0.375000 0.015625
vt 0.125000 0.734375
vt 0.625000 0.734375
vt 0.625000 0.015625
vt 0.875000 0.734375
vt 0.375000 0.734375
vt 0.875000 0.703125
vt 0.625000 0.046875
vt 0.375000 0.703125
vt 0.125000 0.703125
vt 0.375000 0.046875
vt 0.625000 0.703125
vt 0.375000 0.078125
vt 0.125000 0.671875
vt 0.625000 0.671875
vt 0.625000 0.078125
vt 0.875000 0.671875
vt 0.375000 0.671875
vt 0.875000 0.640625
vt 0.625000 0.109375
vt 0.375000 0.640625
vt 0.125000 0.640625
vt 0.375000 0.109375
vt 0.625000 0.640625
vt 0.375000 0.140625
vt 0.125000 0.609375
vt 0.625000 0.609375
vt 0.625000 0.140625
vt 0.875000 0.609375
vt 0.375000 0.609375
vt 0.875000 0.578125
vt 0.625000 0.171875
vt 0.375000 0.578125
vt 0.125000 0.578125
vt 0.375000 0.171875
vt 0.625000 0.578125
vt 0.375000 0.203125
vt 0.125000 0.546875
vt 0.625000 0.546875
vt 0.625000 0.203125
vt 0.875000 0.546875
vt 0.375000 0.546875
vt 0.875000 0.515625
vt 0.625000 0.234375
vt 0.375000 0.515625
vt 0.125000 0.515625
vt 0.375000 0.234375
vt 0.625000 0.515625
s 0
usemtl Material
f 38/59/1 3/3/1 7/9/1 39/61/1
f 4/4/2 8/12/2 7/10/2 3/3/2
f 67/103/3 6/7/3 5/5/3 65/100/3
f 37/58/4 8/13/4 4/4/4 40/62/4
f 40/62/5 4/4/5 3/3/5 38/59/5
f 6/7/6 2/2/6 1/1/6 5/5/6
f 56/86/7 12/20/7 10/17/7 54/83/7
f 53/82/4 9/15/4 12/20/4 56/86/4
f 51/79/8 9/16/8 11/19/8 49/76/8
f 54/83/1 10/17/1 11/18/1 55/85/1
f 62/95/1 16/26/1 13/21/1 63/97/1
f 61/94/4 15/24/4 14/23/4 64/98/4
f 64/98/9 14/23/9 16/26/9 62/95/9
f 59/91/10 15/25/10 13/22/10 57/88/10
f 53/81/11 17/28/11 19/31/11 55/84/11
f 60/92/1 18/29/1 19/30/1 57/87/1
f 59/90/4 17/27/4 20/32/4 58/89/4
f 58/89/12 20/32/12 18/29/12 60/92/12
f 66/101/13 22/35/13 24/38/13 68/104/13
f 67/102/4 23/36/4 22/35/4 66/101/4
f 68/104/1 24/38/1 21/33/1 65/99/1
f 61/93/11 23/37/11 21/34/11 63/96/11
f 43/67/14 25/40/14 27/43/14 41/64/14
f 48/74/15 28/44/15 26/41/15 46/71/15
f 45/70/4 25/39/4 28/44/4 48/74/4
f 46/71/1 26/41/1 27/42/1 47/73/1
f 52/80/1 32/50/1 29/45/1 49/75/1
f 51/78/4 31/48/4 30/47/4 50/77/4
f 50/77/16 30/47/16 32/50/16 52/80/16
f 45/69/17 31/49/17 29/46/17 47/72/17
f 37/57/18 33/52/18 35/55/18 39/60/18
f 42/65/19 36/56/19 34/53/19 44/68/19
f 43/66/4 33/51/4 36/56/4 42/65/4
f 44/68/1 34/53/1 35/54/1 41/63/1
f 8/14/20 37/57/20 39/60/20 7/11/20
f 36/56/21 40/62/21 38/59/21 34/53/21
f 33/51/4 37/58/4 40/62/4 36/56/4
f 34/53/1 38/59/1 39/61/1 35/54/1
f 26/41/1 44/68/1 41/63/1 27/42/1
f 25/39/4 43/66/4 42/65/4 28/44/4
f 28/44/22 42/65/22 44/68/22 26/41/22
f 33/52/23 43/67/23 41/64/23 35/55/23
f 25/40/24 45/69/24 47/72/24 27/43/24
f 32/50/1 46/71/1 47/73/1 29/45/1
f 31/48/4 45/70/4 48/74/4 30/47/4
f 30/47/25 48/74/25 46/71/25 32/50/25
f 12/20/26 50/77/26 52/80/26 10/17/26
f 9/15/4 51/78/4 50/77/4 12/20/4
f 10/17/1 52/80/1 49/75/1 11/18/1
f 31/49/27 51/79/27 49/76/27 29/46/27
f 9/16/28 53/81/28 55/84/28 11/19/28
f 18/29/1 54/83/1 55/85/1 19/30/1
f 17/27/4 53/82/4 56/86/4 20/32/4
f 20/32/29 56/86/29 54/83/29 18/29/29
f 14/23/30 58/89/30 60/92/30 16/26/30
f 15/24/4 59/90/4 58/89/4 14/23/4
f 16/26/1 60/92/1 57/87/1 13/21/1
f 17/28/31 59/91/31 57/88/31 19/31/31
f 15/25/32 61/93/32 63/96/32 13/22/32
f 22/35/29 64/98/29 62/95/29 24/38/29
f 23/36/4 61/94/4 64/98/4 22/35/4
f 24/38/1 62/95/1 63/97/1 21/33/1
f 1/1/1 68/104/1 65/99/1 5/6/1
f 6/8/4 67/102/4 66/101/4 2/2/4
f 2/2/33 66/101/33 68/104/33 1/1/33
f 23/37/34 67/103/34 65/100/34 21/34/34
