# Blender 3.3.0
# www.blender.org
mtllib bestTomatoInTheWorld.mtl
o Icosphere
v 0.000000 -0.913725 0.000000
v 0.723607 -0.426632 0.525725
v -0.276388 -0.426632 0.850649
v -0.894426 -0.426628 0.000000
v -0.276388 -0.426632 -0.850649
v 0.723607 -0.426632 -0.525725
v 0.276388 0.456272 0.850649
v -0.723607 0.456285 0.525725
v -0.723607 0.456444 -0.525725
v 0.276388 0.456530 -0.850649
v 0.894426 0.442093 0.000000
v 0.000000 0.751057 0.000000
v -0.162456 -0.811494 0.499995
v 0.425323 -0.811494 0.309011
v 0.262869 -0.501535 0.809012
v 0.850648 -0.501534 0.000000
v 0.425323 -0.811494 -0.309011
v -0.525730 -0.811492 0.000000
v -0.688189 -0.501534 0.499997
v -0.162456 -0.811494 -0.499995
v -0.688189 -0.501534 -0.499997
v 0.262869 -0.501535 -0.809012
v 0.951058 0.000000 0.309013
v 0.951058 0.000000 -0.309013
v 0.000000 0.000000 1.000000
v 0.587786 0.000000 0.809017
v -0.951058 0.000000 0.309013
v -0.587786 0.000000 0.809017
v -0.587786 0.000000 -0.809017
v -0.951058 0.000000 -0.309013
v 0.587786 0.000000 -0.809017
v 0.000000 0.000000 -1.000000
v 0.688189 0.542184 0.499997
v -0.262869 0.537629 0.809012
v -0.850648 0.527941 0.000000
v -0.262869 0.527424 -0.809012
v 0.688189 0.540994 -0.499997
v 0.084740 0.777778 0.260807
v 0.525730 0.830691 0.000000
v -0.221857 0.778774 0.161186
v -0.221857 0.778107 -0.161186
v 0.084740 0.776689 -0.260807
v 0.274231 0.776482 0.000000
v 0.162454 0.819583 -0.499991
v -0.425323 0.806898 -0.309011
v -0.425323 0.810504 0.309011
v 0.162456 0.791695 0.499995
v 0.056133 0.745190 -0.049935
v -0.055001 0.748090 -0.009747
v -0.017006 0.844705 0.240685
v 0.045632 0.773205 0.720484
v 0.053531 0.845246 0.248189
v 0.038266 0.757184 0.102940
v 0.025811 0.756007 0.002599
v -0.219944 0.845323 0.025259
v -0.758350 0.976486 0.144114
v -0.213413 0.847106 0.102886
v 0.050034 0.694537 0.181247
v 0.117377 0.693360 0.105826
v -0.079229 0.811335 -0.088231
v -0.501452 0.902777 -0.386025
v -0.133371 0.813118 -0.032219
v -0.058738 0.765122 -0.010941
v 0.040704 0.763945 0.007353
v 0.076067 0.859193 -0.235218
v 0.145223 0.963732 -0.774681
v 0.000069 0.860976 -0.252331
v -0.136530 0.722464 -0.016547
v -0.101574 0.721287 0.078330
v 0.158360 0.805575 0.001620
v 0.629946 0.911579 -0.223216
v 0.134340 0.807358 -0.072485
v 0.015651 0.747725 -0.034926
v -0.021978 0.746627 0.051537
v 0.191183 0.815140 0.153896
v 0.722337 0.927199 0.347645
v 0.225070 0.816923 0.083751
v 0.056133 0.745190 -0.049935
v -0.055001 0.748090 -0.009747
v -0.017006 0.844705 0.240685
v 0.045632 0.773205 0.720484
v 0.053531 0.845246 0.248189
v 0.038266 0.757184 0.102940
v 0.025811 0.756007 0.002599
v -0.219944 0.845323 0.025259
v -0.758350 0.976486 0.144114
v -0.213413 0.847106 0.102886
v 0.050034 0.694537 0.181247
v 0.117377 0.693360 0.105826
v -0.079229 0.811335 -0.088231
v -0.501452 0.902777 -0.386025
v -0.133371 0.813118 -0.032219
v -0.058738 0.765122 -0.010941
v 0.040704 0.763945 0.007353
v 0.076067 0.859193 -0.235218
v 0.145223 0.963732 -0.774681
v 0.000069 0.860976 -0.252331
v -0.136530 0.722464 -0.016547
v -0.101574 0.721287 0.078330
v 0.158360 0.805575 0.001620
v 0.629946 0.911579 -0.223216
v 0.134340 0.807358 -0.072485
v 0.015651 0.747725 -0.034926
v -0.021978 0.746627 0.051537
v 0.191183 0.815140 0.153896
v 0.722337 0.927199 0.347645
v 0.225070 0.816923 0.083751
vn 0.0722 -0.9723 0.2223
vn 0.6855 -0.6791 0.2624
vn -0.1891 -0.9723 0.1374
vn -0.1891 -0.9723 -0.1374
vn 0.0722 -0.9723 -0.2223
vn 0.9001 -0.3445 0.2666
vn 0.0246 -0.3445 0.9385
vn -0.8849 -0.3445 0.3134
vn -0.5715 -0.3445 -0.7448
vn 0.5317 -0.3445 -0.7737
vn 0.8020 -0.1316 0.5827
vn -0.3063 -0.1316 0.9428
vn -0.9913 -0.1316 -0.0000
vn -0.3063 -0.1316 -0.9428
vn 0.8020 -0.1316 -0.5827
vn 0.3471 0.7315 0.5869
vn -0.4551 0.7111 0.5359
vn -0.6529 0.7133 -0.2548
vn 0.0370 0.7002 -0.7130
vn 0.7160 0.6793 -0.1610
vn -0.0921 0.9934 0.0677
vn 0.4406 0.8314 -0.3386
vn 0.3723 0.7026 -0.6065
vn 0.0406 0.9930 0.1108
vn -0.1885 0.8299 -0.5251
vn -0.4436 0.7132 -0.5428
vn 0.1225 0.9925 -0.0021
vn -0.5509 0.8346 -0.0049
vn -0.6569 0.7094 0.2554
vn 0.0405 0.9926 -0.1149
vn -0.1381 0.8498 0.5087
vn 0.0577 0.7307 0.6802
vn -0.0921 0.9932 -0.0718
vn 0.4005 0.8439 0.3568
vn 0.7162 0.6795 0.1594
vn 0.8946 0.3273 -0.3043
vn 0.7954 0.1825 -0.5779
vn 0.5743 0.3231 -0.7522
vn -0.0299 0.3271 -0.9445
vn -0.3036 0.1870 -0.9343
vn -0.5310 0.3271 -0.7817
vn -0.9075 0.3270 -0.2638
vn -0.9824 0.1868 -0.0000
vn -0.9074 0.3270 0.2639
vn -0.5364 0.3242 0.7793
vn -0.3038 0.1836 0.9349
vn -0.0241 0.3242 0.9457
vn 0.5737 0.3228 0.7528
vn 0.7955 0.1821 0.5780
vn 0.8949 0.3269 0.3037
vn 0.3067 0.1231 -0.9438
vn 0.3030 -0.1963 -0.9326
vn 0.0246 -0.3445 -0.9385
vn -0.8029 0.1231 -0.5833
vn -0.7933 -0.1963 -0.5763
vn -0.8849 -0.3445 -0.3134
vn -0.8029 0.1232 0.5833
vn -0.7933 -0.1963 0.5763
vn -0.5715 -0.3445 0.7448
vn 0.3067 0.1232 0.9438
vn 0.3030 -0.1963 0.9326
vn 0.5317 -0.3445 0.7737
vn 0.9919 0.1271 -0.0000
vn 0.9805 -0.1963 -0.0000
vn 0.9001 -0.3445 -0.2666
vn 0.4614 -0.6791 -0.5709
vn 0.1820 -0.8082 -0.5601
vn -0.0377 -0.6791 -0.7331
vn -0.4004 -0.6791 -0.6153
vn -0.4765 -0.8082 -0.3462
vn -0.7089 -0.6791 -0.1907
vn -0.7089 -0.6791 0.1907
vn -0.4765 -0.8082 0.3462
vn -0.4004 -0.6791 0.6153
vn 0.6855 -0.6791 -0.2624
vn 0.5890 -0.8082 -0.0000
vn 0.2337 -0.9723 -0.0000
vn -0.0377 -0.6791 0.7331
vn 0.1820 -0.8082 0.5601
vn 0.4614 -0.6791 0.5709
vn -0.1944 0.9726 0.1273
vn 0.0424 0.9848 0.1686
vn 0.1471 0.9891 -0.0045
vn 0.0543 0.9935 -0.0995
vn -0.1567 0.9855 -0.0650
vn -0.0479 0.9412 -0.3344
vn -0.0236 0.9883 0.1504
vn -0.0193 0.9820 0.1878
vn -0.2760 0.9545 0.1130
vn 0.2986 0.9196 0.2553
vn -0.1837 0.9809 -0.0638
vn 0.3365 0.9403 -0.0515
vn 0.1400 0.9847 0.1039
vn -0.0564 0.9323 0.3572
vn -0.1811 0.9800 0.0823
vn -0.2601 0.9603 -0.1011
vn 0.2278 0.9728 -0.0415
vn 0.0479 -0.9412 0.3344
vn 0.0236 -0.9883 -0.1504
vn 0.0193 -0.9820 -0.1878
vn 0.2760 -0.9545 -0.1130
vn -0.2986 -0.9196 -0.2553
vn 0.1837 -0.9809 0.0638
vn -0.3365 -0.9403 0.0515
vn -0.1400 -0.9847 -0.1039
vn 0.0564 -0.9323 -0.3572
vn 0.1811 -0.9800 -0.0823
vn 0.2601 -0.9603 0.1011
vn -0.2278 -0.9728 0.0415
vt 0.567854 0.191734
vt 0.649659 0.563318
vt 0.499328 0.024154
vt 0.898453 0.115729
vt 0.215003 0.649018
vt 0.695229 0.117737
vt 0.499326 0.356874
vt 0.215002 0.443367
vt 0.813394 0.410749
vt 0.379837 0.190758
vt 0.099966 0.339652
vt 0.465589 0.460495
vt 0.299605 0.291475
vt 0.801375 0.299907
vt 0.315587 0.086448
vt 0.030900 0.546195
vt 0.909054 0.595909
vt 0.706064 0.589334
vt 0.468452 0.666147
vt 0.163403 0.177730
vt 0.860903 0.024154
vt 0.646920 0.130853
vt 0.533278 0.093736
vt 0.657756 0.465620
vt 0.965408 0.075439
vt 0.605909 0.032287
vt 0.657756 0.661204
vt 0.723475 0.405183
vt 0.422032 0.093098
vt 0.463043 0.191663
vt 0.646920 0.251720
vt 0.303538 0.606632
vt 0.741451 0.025335
vt 0.792463 0.108871
vt 0.303538 0.485753
vt 0.533277 0.289302
vt 0.605907 0.348722
vt 0.225371 0.546193
vt 0.916694 0.408727
vt 0.247164 0.387961
vt 0.422030 0.288665
vt 0.565455 0.623699
vt 0.553080 0.721646
vt 0.746924 0.490791
vt 0.961556 0.191854
vt 0.553080 0.405183
vt 0.565454 0.502820
vt 0.134156 0.704425
vt 0.735218 0.213695
vt 0.854670 0.212516
vt 0.120685 0.485754
vt 0.120686 0.606634
vt 0.866341 0.492982
vt 0.973135 0.514094
vt 0.134154 0.387961
vt 0.024154 0.264953
vt 0.452572 0.563260
vt 0.204679 0.339652
vt 0.904693 0.303787
vt 0.433469 0.405280
vt 0.331528 0.190830
vt 0.024154 0.643987
vt 0.711315 0.303787
vt 0.229392 0.024154
vt 0.975845 0.635426
vt 0.024257 0.448402
vt 0.039370 0.069961
vt 0.802885 0.603942
vt 0.142639 0.227277
vt 0.751586 0.682633
vt 0.379837 0.623858
vt 0.060150 0.169682
vt 0.203837 0.212506
vt 0.208746 0.149646
vt 0.150581 0.125566
vt 0.109725 0.173546
vt 0.871137 0.682633
vt 0.138606 0.077711
vt 0.250285 0.123885
vt 0.240849 0.244393
vt 0.387710 0.502983
vt 0.123716 0.272726
vt 0.081597 0.955729
vt 0.059896 0.947917
vt 0.067708 0.899306
vt 0.078125 0.804688
vt 0.081597 0.897569
vt 0.435764 0.975694
vt 0.415799 0.973958
vt 0.417535 0.927083
vt 0.435764 0.822049
vt 0.433160 0.927951
vt 0.571181 0.975694
vt 0.552083 0.973958
vt 0.552083 0.921007
vt 0.571181 0.822049
vt 0.567708 0.921007
vt 0.353299 0.959201
vt 0.333333 0.959201
vt 0.334201 0.911458
vt 0.338542 0.804688
vt 0.348958 0.910590
vt 0.897569 0.940104
vt 0.877604 0.938368
vt 0.879340 0.884549
vt 0.897569 0.782986
vt 0.894097 0.885417
vt 0.284722 0.963542
vt 0.266493 0.962674
vt 0.269097 0.915799
vt 0.284722 0.804688
vt 0.283854 0.915799
vt 0.151910 0.804688
vt 0.130208 0.811632
vt 0.138021 0.859375
vt 0.144965 0.954861
vt 0.151910 0.861979
vt 0.638889 0.822049
vt 0.619792 0.824653
vt 0.621528 0.869792
vt 0.638889 0.971354
vt 0.636285 0.868924
vt 0.503472 0.822049
vt 0.484375 0.824653
vt 0.483507 0.877604
vt 0.503472 0.975694
vt 0.498264 0.876736
vt 0.809896 0.940972
vt 0.829861 0.940972
vt 0.828993 0.891493
vt 0.824653 0.782986
vt 0.814236 0.890625
vt 0.761285 0.782986
vt 0.742188 0.784722
vt 0.743056 0.840278
vt 0.761285 0.942708
vt 0.758681 0.839410
vt 0.218750 0.804688
vt 0.200521 0.806424
vt 0.203125 0.853299
vt 0.218750 0.964410
vt 0.217882 0.853299
s 1
f 1/1/1 14/23/1 13/22/1
f 2/3/2 14/23/2 16/29/2
f 1/1/3 13/22/3 18/31/3
f 1/1/4 18/31/4 20/36/4
f 1/1/5 20/36/5 17/30/5
f 2/2/6 16/27/6 23/42/6
f 3/4/7 15/25/7 25/45/7
f 4/6/8 19/34/8 27/49/8
f 5/8/9 21/38/9 29/51/9
f 6/9/10 22/39/10 31/53/10
f 2/2/11 23/42/11 26/47/11
f 3/4/12 25/45/12 28/50/12
f 4/5/13 27/48/13 30/52/13
f 5/8/14 29/51/14 32/55/14
f 6/9/15 31/53/15 24/44/15
f 7/12/16 33/57/16 47/81/16
f 8/13/17 34/58/17 46/80/17
f 9/15/18 35/61/18 45/79/18
f 10/17/19 36/65/19 44/77/19
f 11/18/20 37/68/20 39/70/20
f 43/76/21 42/75/21 12/20/21
f 39/72/22 37/67/22 44/78/22
f 37/68/23 10/17/23 44/77/23
f 42/75/24 41/74/24 12/20/24
f 44/78/25 36/64/25 45/79/25
f 36/64/26 9/15/26 45/79/26
f 41/74/27 40/73/27 12/20/27
f 45/79/28 35/61/28 46/80/28
f 35/61/29 8/13/29 46/80/29
f 40/73/30 38/69/30 12/20/30
f 46/80/31 34/58/31 47/82/31
f 34/58/32 7/11/32 47/82/32
f 38/69/33 43/76/33 12/20/33
f 47/82/34 33/56/34 39/72/34
f 33/57/35 11/19/35 39/71/35
f 24/44/36 37/68/36 11/18/36
f 24/44/37 31/53/37 37/68/37
f 31/53/38 10/17/38 37/68/38
f 32/54/39 36/65/39 10/17/39
f 32/55/40 29/51/40 36/66/40
f 29/51/41 9/16/41 36/66/41
f 30/52/42 35/62/42 9/16/42
f 30/52/43 27/48/43 35/62/43
f 27/49/44 8/14/44 35/63/44
f 28/50/45 34/59/45 8/14/45
f 28/50/46 25/45/46 34/59/46
f 25/46/47 7/12/47 34/60/47
f 26/47/48 33/57/48 7/12/48
f 26/47/49 23/42/49 33/57/49
f 23/42/50 11/19/50 33/57/50
f 31/53/51 32/54/51 10/17/51
f 31/53/52 22/39/52 32/54/52
f 22/40/53 5/8/53 32/55/53
f 29/51/54 30/52/54 9/16/54
f 29/51/55 21/38/55 30/52/55
f 21/38/56 4/5/56 30/52/56
f 27/49/57 28/50/57 8/14/57
f 27/49/58 19/34/58 28/50/58
f 19/34/59 3/4/59 28/50/59
f 25/46/60 26/47/60 7/12/60
f 25/46/61 15/24/61 26/47/61
f 15/24/62 2/2/62 26/47/62
f 23/42/63 24/43/63 11/19/63
f 23/42/64 16/27/64 24/43/64
f 16/28/65 6/9/65 24/44/65
f 17/30/66 22/41/66 6/10/66
f 17/30/67 20/36/67 22/41/67
f 20/36/68 5/7/68 22/41/68
f 20/35/69 21/38/69 5/8/69
f 20/36/70 18/31/70 21/37/70
f 18/32/71 4/5/71 21/38/71
f 18/33/72 19/34/72 4/6/72
f 18/33/73 13/21/73 19/34/73
f 13/21/74 3/4/74 19/34/74
f 16/29/75 17/30/75 6/10/75
f 16/29/76 14/23/76 17/30/76
f 14/23/77 1/1/77 17/30/77
f 13/21/78 15/25/78 3/4/78
f 13/22/79 14/23/79 15/26/79
f 14/23/80 2/3/80 15/26/80
f 42/75/81 43/76/81 39/72/81 44/78/81
f 41/74/82 42/75/82 44/78/82 45/79/82
f 40/73/83 41/74/83 45/79/83 46/80/83
f 38/69/84 40/73/84 46/80/84 47/82/84
f 43/76/85 38/69/85 47/82/85 39/72/85
f 48/83/86 49/84/86 50/85/86 52/87/86
f 52/87/87 50/85/87 51/86/87
f 67/102/88 65/100/88 66/101/88
f 70/105/89 72/107/89 68/103/89 69/104/89
f 60/95/90 62/97/90 58/93/90 59/94/90
f 77/112/91 75/110/91 76/111/91
f 53/88/92 54/89/92 55/90/92 57/92/92
f 61/96/93 62/97/93 60/95/93
f 63/98/94 64/99/94 65/100/94 67/102/94
f 71/106/95 72/107/95 70/105/95
f 73/108/96 74/109/96 75/110/96 77/112/96
f 57/92/97 55/90/97 56/91/97
f 78/113/98 82/117/98 80/115/98 79/114/98
f 82/117/99 81/116/99 80/115/99
f 97/132/100 96/131/100 95/130/100
f 100/135/101 99/134/101 98/133/101 102/137/101
f 90/125/102 89/124/102 88/123/102 92/127/102
f 107/142/103 106/141/103 105/140/103
f 83/118/104 87/122/104 85/120/104 84/119/104
f 91/126/105 90/125/105 92/127/105
f 93/128/106 97/132/106 95/130/106 94/129/106
f 101/136/107 100/135/107 102/137/107
f 103/138/108 107/142/108 105/140/108 104/139/108
f 87/122/109 86/121/109 85/120/109
