# Blender 3.3.0
# www.blender.org
mtllib CoolAsparagus.mtl
o Cone
v -0.001757 -0.100196 -1.492566
v 0.066129 -0.072077 -1.492566
v 0.094248 -0.004191 -1.492566
v 0.066129 0.063695 -1.492566
v -0.001757 0.091815 -1.492566
v -0.069643 0.063695 -1.492566
v -0.097762 -0.004191 -1.492566
v -0.069643 -0.072077 -1.492566
v -0.001757 -0.004191 -1.719786
v -0.001757 -0.107494 -1.347801
v 0.071290 -0.077237 -1.347801
v 0.101547 -0.004191 -1.347801
v 0.071290 0.068856 -1.347801
v -0.001757 0.099113 -1.347801
v -0.074804 0.068856 -1.347801
v -0.105060 -0.004191 -1.347801
v -0.074804 -0.077237 -1.347801
v -0.001757 -0.101240 -1.182402
v 0.066868 -0.072815 -1.182402
v 0.095293 -0.004191 -1.182402
v 0.066868 0.064434 -1.182402
v -0.001757 0.092859 -1.182402
v -0.070381 0.064434 -1.182402
v -0.098807 -0.004191 -1.182402
v -0.070381 -0.072815 -1.182402
v -0.001757 -0.101240 -1.177504
v 0.066868 -0.072815 -1.177504
v 0.095293 -0.004191 -1.177504
v 0.066868 0.064434 -1.177504
v -0.001757 0.092859 -1.177504
v -0.070381 0.064434 -1.177504
v -0.098807 -0.004191 -1.177504
v -0.070381 -0.072815 -1.177504
v -0.001757 -0.086212 -1.045409
v 0.056241 -0.062188 -1.045409
v 0.080264 -0.004191 -1.045409
v 0.056241 0.053807 -1.045409
v -0.001757 0.077830 -1.045409
v -0.059755 0.053807 -1.045409
v -0.083778 -0.004191 -1.045409
v -0.059755 -0.062188 -1.045409
v -0.001757 -0.095572 1.193252
v 0.062859 -0.068807 1.193252
v 0.089624 -0.004191 1.193252
v 0.062859 0.060426 1.193252
v -0.001757 0.087190 1.193252
v -0.066373 0.060426 1.193252
v -0.093138 -0.004191 1.193252
v -0.066373 -0.068807 1.193252
v 0.030010 0.084234 -1.291029
v 0.040091 0.096642 -1.267149
v 0.075634 0.034008 -1.147429
v 0.090284 0.041411 -1.111195
v 0.084085 -0.033661 -1.452032
v 0.095961 -0.042817 -1.418904
v 0.039350 -0.089050 -1.310316
v 0.048790 -0.105261 -1.275542
v -0.035986 -0.083012 -1.145483
v -0.038946 -0.094861 -1.101202
v -0.028722 0.078876 -1.156758
v -0.033759 0.091991 -1.123634
v -0.083105 0.033648 -1.472409
v -0.095839 0.039122 -1.446166
v -0.090456 -0.036447 -1.314902
v -0.106011 -0.042248 -1.282530
v 0.018904 0.051117 -1.568631
v 0.026843 0.069951 -1.538414
v -0.057140 -0.022170 -1.571082
v -0.069034 -0.027769 -1.554620
v 0.028326 -0.058284 -1.562269
v 0.033641 -0.069763 -1.546731
v -0.001757 0.079018 -0.761461
v 0.057083 0.054650 -0.760395
v 0.024113 0.067907 -0.855937
v 0.033731 0.088117 -0.824541
v 0.080881 -0.004191 -0.897983
v 0.056676 -0.062624 -0.898062
v 0.069009 -0.032076 -0.974830
v 0.078381 -0.042537 -0.963770
v -0.001757 -0.087864 -0.650271
v 0.057395 -0.063343 -0.654984
v 0.024852 -0.076465 -0.740425
v 0.031864 -0.092673 -0.718156
v -0.060331 -0.062765 -0.850377
v -0.084601 -0.004191 -0.848651
v -0.071718 -0.034199 -0.957002
v -0.086643 -0.043156 -0.937328
v -0.085655 -0.004191 -0.596539
v -0.061079 0.055132 -0.597312
v -0.071902 0.027966 -0.700026
v -0.089769 0.034902 -0.671321
vn 0.3565 -0.8606 -0.3636
vn 0.8606 -0.3565 -0.3636
vn 0.8606 0.3565 -0.3636
vn 0.6782 0.5303 -0.5087
vn -0.3565 0.8606 -0.3636
vn -0.8606 0.3565 -0.3636
vn -0.9229 -0.3823 -0.0465
vn -0.8193 0.2953 -0.4915
vn -0.3565 -0.8606 -0.3636
vn -0.9233 -0.3824 0.0349
vn -0.9229 0.3823 -0.0465
vn 0.3823 -0.9229 -0.0465
vn -0.3823 0.9229 -0.0465
vn 0.3823 0.9229 -0.0465
vn 0.9229 0.3823 -0.0465
vn 0.9229 -0.3823 -0.0465
vn -0.3823 -0.9229 -0.0465
vn 0.9192 0.3808 0.1004
vn -0.3825 0.9233 0.0349
vn 0.9233 0.3825 0.0349
vn 0.3825 -0.9233 0.0349
vn -0.3825 -0.9233 0.0349
vn -0.9233 0.3824 0.0349
vn 0.3825 0.9234 0.0332
vn 0.9233 -0.3825 0.0349
vn -0.9192 -0.3807 0.1005
vn 0.3807 -0.9192 0.1005
vn 0.9192 -0.3807 0.1005
vn -0.3808 -0.9192 0.1004
vn -0.3808 0.9192 0.1004
vn -0.3827 0.9239 -0.0039
vn -0.0000 -0.0000 1.0000
vn 0.9239 0.3827 -0.0039
vn 0.3827 -0.9239 -0.0039
vn -0.3827 -0.9239 -0.0039
vn -0.9239 0.3827 -0.0039
vn 0.3827 0.9239 -0.0039
vn 0.9239 -0.3827 -0.0039
vn -0.9239 -0.3827 -0.0039
vn 0.3729 0.9003 0.2243
vn -0.5121 0.8314 -0.2158
vn 0.8560 0.3546 0.3762
vn -0.0169 0.9809 -0.1936
vn 0.9155 -0.3792 0.1341
vn 0.9181 0.3136 -0.2425
vn 0.9349 -0.1104 -0.3373
vn 0.8271 -0.5130 -0.2296
vn 0.2652 -0.9007 -0.3440
vn 0.3715 -0.8968 0.2403
vn 0.9710 0.0923 -0.2206
vn -0.5144 -0.8222 -0.2437
vn -0.3555 -0.8583 0.3700
vn 0.4897 -0.8499 -0.1947
vn -0.9304 -0.3338 -0.1515
vn -0.3641 0.8790 0.3080
vn -0.9553 0.1948 -0.2224
vn 0.7071 0.6877 -0.1648
vn -0.9208 0.3814 0.0816
vn -0.8184 -0.4937 -0.2941
vn -0.1282 0.9566 -0.2617
vn -0.9192 0.3807 0.1005
vn 0.3807 0.9192 0.1005
vn -0.9038 -0.3744 0.2073
vn -0.1446 -0.9596 -0.2415
vn -0.6954 0.6869 -0.2111
vn 0.3565 0.8606 -0.3636
vn 0.3751 0.9056 -0.1979
vn -0.1415 0.8564 -0.4966
vn -0.8606 -0.3565 -0.3636
vn -0.8891 -0.3683 -0.2717
vn -0.3919 -0.7469 -0.5372
vn 0.8122 -0.3007 -0.5000
vn 0.3695 -0.8922 -0.2598
vn -0.1455 -0.8189 -0.5552
vn 0.3206 0.7487 -0.5802
vn 0.3566 0.8752 0.3268
vn 0.6084 -0.2510 -0.7529
vn 0.9079 -0.3763 0.1849
vn 0.2577 -0.7408 -0.6203
vn 0.3876 -0.8860 0.2547
vn -0.7030 -0.2719 -0.6571
vn -0.9054 -0.3807 0.1881
vn -0.7709 0.3121 -0.5553
vn -0.8947 0.3738 0.2446
vt 0.410156 0.730469
vt 0.675781 0.726562
vt 0.457031 0.222656
vt 0.988281 0.714844
vt 0.453125 0.730469
vt 0.726562 0.289062
vt 0.500000 0.222656
vt 0.957031 0.726562
vt 0.488281 0.730469
vt 0.636719 0.496094
vt 0.910156 0.730469
vt 0.855469 0.730469
vt 0.738281 0.335938
vt 0.828125 0.730469
vt 0.710938 0.335938
vt 0.773438 0.730469
vt 0.742188 0.726562
vt 0.593750 0.726562
vt 0.640625 0.218750
vt 0.640625 0.726562
vt 0.687500 0.218750
vt 0.429688 0.625000
vt 0.914062 0.609375
vt 0.812500 0.609375
vt 0.617188 0.609375
vt 0.410156 0.808594
vt 0.683594 0.800781
vt 0.457031 0.808594
vt 0.503906 0.300781
vt 0.972656 0.796875
vt 0.496094 0.808594
vt 0.542969 0.300781
vt 0.476562 0.484375
vt 0.855469 0.800781
vt 0.921875 0.800781
vt 0.824219 0.808594
vt 0.882812 0.808594
vt 0.769531 0.800781
vt 0.558594 0.800781
vt 0.535156 0.371094
vt 0.730469 0.460938
vt 0.730469 0.796875
vt 0.593750 0.800781
vt 0.570312 0.371094
vt 0.644531 0.800781
vt 0.410156 0.890625
vt 0.683594 0.882812
vt 0.457031 0.382812
vt 0.636719 0.343750
vt 0.453125 0.890625
vt 0.500000 0.382812
vt 0.617188 0.320312
vt 0.984375 0.878906
vt 0.488281 0.890625
vt 0.781250 0.468750
vt 0.929688 0.882812
vt 0.816406 0.890625
vt 0.750000 0.476562
vt 0.531250 0.484375
vt 0.898438 0.890625
vt 0.769531 0.882812
vt 0.558594 0.882812
vt 0.593750 0.882812
vt 0.640625 0.375000
vt 0.656250 0.246094
vt 0.644531 0.882812
vt 0.691406 0.375000
vt 0.582031 0.476562
vt 0.410156 0.890625
vt 0.683594 0.882812
vt 0.453125 0.890625
vt 0.984375 0.878906
vt 0.488281 0.890625
vt 0.929688 0.890625
vt 0.816406 0.890625
vt 0.898438 0.890625
vt 0.769531 0.890625
vt 0.558594 0.882812
vt 0.593750 0.890625
vt 0.644531 0.890625
vt 0.414062 0.960938
vt 0.671875 0.957031
vt 0.125000 0.035156
vt 0.109375 0.035156
vt 0.542969 0.394531
vt 0.453125 0.960938
vt 0.156250 0.035156
vt 0.988281 0.945312
vt 0.484375 0.960938
vt 0.316406 0.070312
vt 0.187500 0.035156
vt 0.527344 0.296875
vt 0.718750 0.343750
vt 0.328125 0.101562
vt 0.218750 0.035156
vt 0.562500 0.296875
vt 0.695312 0.300781
vt 0.953125 0.957031
vt 0.812500 0.957031
vt 0.250000 0.035156
vt 0.675781 0.382812
vt 0.675781 0.343750
vt 0.921875 0.957031
vt 0.765625 0.957031
vt 0.281250 0.035156
vt 0.015625 0.035156
vt 0.707031 0.382812
vt 0.695312 0.503906
vt 0.570312 0.957031
vt 0.046875 0.035156
vt 0.601562 0.957031
vt 0.640625 0.957031
vt 0.078125 0.035156
vt 0.511719 0.394531
vt 0.542969 0.472656
vt 0.832031 0.332031
vt 0.109375 0.953125
vt 0.125000 0.953125
vt 0.832031 0.292969
vt 0.156250 0.953125
vt 0.875000 0.250000
vt 0.296875 0.960938
vt 0.187500 0.953125
vt 0.914062 0.250000
vt 0.328125 0.960938
vt 0.218750 0.960938
vt 0.957031 0.292969
vt 0.250000 0.960938
vt 0.281250 0.960938
vt 0.957031 0.332031
vt 0.015625 0.953125
vt 0.914062 0.375000
vt 0.046875 0.953125
vt 0.875000 0.375000
vt 0.078125 0.953125
vt 0.902344 0.839844
vt 0.531250 0.421875
vt 0.753906 0.425781
vt 0.511719 0.433594
vt 0.753906 0.437500
vt 0.957031 0.902344
vt 0.695312 0.246094
vt 0.718750 0.394531
vt 0.546875 0.269531
vt 0.679688 0.265625
vt 0.699219 0.382812
vt 0.476562 0.757812
vt 0.476562 0.425781
vt 0.523438 0.250000
vt 0.460938 0.441406
vt 0.531250 0.265625
vt 0.437500 0.828125
vt 0.617188 0.246094
vt 0.636719 0.414062
vt 0.484375 0.335938
vt 0.605469 0.265625
vt 0.625000 0.394531
vt 0.656250 0.902344
vt 0.523438 0.343750
vt 0.558594 0.417969
vt 0.507812 0.359375
vt 0.558594 0.457031
vt 0.792969 0.902344
vt 0.695312 0.441406
vt 0.675781 0.402344
vt 0.691406 0.363281
vt 0.679688 0.453125
vt 0.664062 0.390625
vt 0.757812 0.738281
vt 0.550781 0.308594
vt 0.718750 0.398438
vt 0.546875 0.324219
vt 0.714844 0.414062
vt 0.617188 0.816406
vt 0.582031 0.410156
vt 0.656250 0.320312
vt 0.664062 0.324219
vt 0.570312 0.425781
vt 0.644531 0.300781
vt 0.636719 0.539062
vt 0.828125 0.691406
vt 0.710938 0.296875
vt 0.625000 0.519531
vt 0.722656 0.316406
vt 0.617188 0.687500
vt 0.664062 0.179688
vt 0.664062 0.191406
vt 0.437500 0.699219
vt 0.726562 0.246094
vt 0.484375 0.191406
vt 0.718750 0.257812
vt 0.484375 0.195312
vt 0.250000 0.156250
vt 0.675781 0.507812
vt 0.656250 0.472656
vt 0.328125 0.156250
vt 0.218750 0.156250
vt 0.644531 0.507812
vt 0.625000 0.472656
vt 0.234375 0.113281
vt 0.660156 0.460938
vt 0.660156 0.472656
vt 0.656250 0.441406
vt 0.300781 0.101562
vt 0.187500 0.089844
vt 0.601562 0.382812
vt 0.613281 0.437500
vt 0.156250 0.089844
vt 0.570312 0.382812
vt 0.582031 0.437500
vt 0.171875 0.062500
vt 0.582031 0.343750
vt 0.585938 0.378906
vt 0.597656 0.414062
vt 0.109375 0.195312
vt 0.125000 0.195312
vt 0.496094 0.257812
vt 0.156250 0.195312
vt 0.527344 0.257812
vt 0.140625 0.152344
vt 0.511719 0.214844
vt 0.511719 0.222656
vt 0.078125 0.113281
vt 0.503906 0.460938
vt 0.046875 0.113281
vt 0.472656 0.460938
vt 0.062500 0.070312
vt 0.488281 0.417969
vt 0.488281 0.433594
vt 0.046875 0.214844
vt 0.410156 0.347656
vt 0.496094 0.316406
vt 0.281250 0.226562
vt 0.015625 0.214844
vt 0.421875 0.429688
vt 0.464844 0.316406
vt 0.031250 0.179688
vt 0.437500 0.398438
vt 0.425781 0.386719
vt 0.480469 0.289062
s 1
f 1/1/1 9/22/1 2/5/1 70/188/1
f 2/4/2 9/23/2 3/8/2
f 3/8/3 9/23/3 4/11/3
f 4/10/4 66/180/4 67/183/4
f 5/14/5 9/24/5 6/16/5
f 6/16/6 9/24/6 7/17/6
f 7/18/7 8/20/7 17/45/7 16/43/7
f 7/19/8 68/186/8 69/187/8
f 8/20/9 9/25/9 1/2/9
f 16/43/10 17/45/10 25/66/10 64/174/10 24/63/10
f 6/16/11 7/17/11 16/42/11 62/169/11 15/38/11
f 1/1/12 2/5/12 11/28/12 10/26/12
f 5/14/13 6/16/13 15/38/13 14/36/13
f 4/12/14 5/14/14 14/36/14 13/34/14
f 3/8/15 4/11/15 13/35/15 12/30/15
f 2/5/16 3/9/16 12/31/16 54/147/16 11/28/16
f 8/20/17 1/2/17 10/27/17 17/45/17
f 20/53/18 21/56/18 29/74/18 37/98/18 52/141/18 36/88/18 28/72/18
f 14/36/19 15/38/19 23/61/19 22/57/19
f 12/30/20 13/35/20 21/56/20 20/53/20
f 10/26/21 11/28/21 19/50/21 56/152/21 18/46/21
f 17/45/22 10/27/22 18/47/22 25/66/22
f 15/39/23 16/43/23 24/63/23 23/62/23
f 13/35/24 14/37/24 22/60/24 50/136/24 21/56/24
f 11/28/25 12/31/25 20/54/25 19/50/25
f 24/63/26 25/66/26 33/80/26 41/112/26 40/111/26 32/79/26
f 18/46/27 19/50/27 27/71/27 35/86/27 34/81/27 26/69/27
f 19/50/28 20/54/28 28/73/28 36/89/28 35/86/28 27/71/28
f 26/70/29 34/82/29 58/158/29 41/112/29 33/80/29 25/66/29 18/47/29
f 22/57/30 23/61/30 31/77/30 39/104/30 60/163/30 38/99/30 30/75/30
f 38/100/31 39/105/31 89/233/31 47/129/31 46/128/31 72/193/31
f 42/116/32 43/119/32 44/121/32 45/124/32 46/127/32 47/130/32 48/132/32 49/134/32
f 36/90/33 37/94/33 73/196/33 45/125/33 44/122/33 76/204/33
f 34/83/34 35/87/34 77/208/34 81/218/34 82/220/34 80/216/34
f 41/113/35 34/84/35 80/215/35 42/117/35 49/135/35 84/223/35
f 39/106/36 40/110/36 85/225/36 88/230/36 90/237/36 89/234/36
f 37/95/37 38/100/37 72/193/37 74/200/37 73/197/37
f 35/87/38 36/91/38 76/205/38 78/211/38 77/208/38
f 40/110/39 41/113/39 84/223/39 86/227/39 85/225/39
f 21/55/40 51/140/40 22/58/40
f 22/59/41 51/139/41 50/137/41
f 36/92/42 53/144/42 37/96/42
f 37/97/43 53/145/43 52/142/43
f 11/29/44 55/151/44 12/32/44
f 12/33/45 55/150/45 54/148/45
f 50/138/46 51/140/46 21/55/46
f 52/143/47 53/146/47 36/93/47
f 54/149/48 55/151/48 11/29/48
f 18/48/49 57/155/49 19/51/49
f 19/52/50 57/156/50 56/153/50
f 56/154/51 57/157/51 18/49/51
f 41/114/52 59/161/52 34/85/52
f 34/85/53 59/161/53 58/159/53
f 58/160/54 59/162/54 41/115/54
f 38/101/55 61/166/55 39/107/55
f 39/108/56 61/167/56 60/164/56
f 60/165/57 61/168/57 38/102/57
f 15/40/58 63/172/58 16/44/58
f 16/44/59 63/172/59 62/170/59
f 62/171/60 63/173/60 15/41/60
f 23/62/61 24/63/61 32/79/61 40/111/61 39/109/61 31/78/61
f 21/56/62 22/60/62 30/76/62 38/103/62 37/98/62 29/74/62
f 24/64/63 65/177/63 25/67/63
f 25/68/64 65/178/64 64/175/64
f 64/176/65 65/179/65 24/65/65
f 5/14/66 66/181/66 4/12/66 9/24/66
f 67/184/67 5/15/67 4/13/67
f 67/184/68 66/182/68 5/15/68
f 8/20/69 68/185/69 7/18/69 9/25/69
f 69/187/70 8/21/70 7/19/70
f 69/187/71 68/186/71 8/21/71
f 70/189/72 2/6/72 71/191/72
f 1/3/73 71/192/73 2/7/73
f 71/192/74 1/3/74 70/190/74
f 73/197/37 72/193/37 46/128/37 45/126/37
f 73/198/75 74/201/75 72/194/75 75/202/75
f 75/203/76 72/195/76 73/199/76
f 77/208/38 76/205/38 44/123/38 43/120/38 81/218/38
f 77/209/77 78/212/77 76/206/77 79/213/77
f 79/214/78 76/207/78 77/210/78
f 80/217/79 82/221/79 81/219/79 83/222/79
f 80/216/34 81/218/34 43/120/34 42/118/34
f 83/222/80 81/219/80 80/217/80
f 85/225/39 84/223/39 49/135/39 48/133/39 88/230/39
f 85/226/81 86/228/81 84/224/81 87/229/81
f 87/229/82 84/224/82 85/226/82
f 89/234/36 88/230/36 48/133/36 47/131/36
f 89/235/83 90/238/83 88/231/83 91/239/83
f 91/240/84 88/232/84 89/236/84
