# Blender 3.3.0
# www.blender.org
mtllib panbutbetterwithmeat.mtl
o Cylinder
v 0.258577 -0.071432 -0.967381
v 0.237611 0.103748 -0.888365
v 0.707009 -0.074126 -0.708826
v 0.650710 0.101266 -0.650182
v 0.966081 -0.080605 -0.260731
v 0.889369 0.095297 -0.237394
v 0.966375 -0.089134 0.256836
v 0.889640 0.087441 0.239394
v 0.707812 -0.097426 0.705195
v 0.651450 0.079802 0.652426
v 0.081084 -0.088129 0.964559
v 0.238622 0.074428 0.891030
v -0.079480 -0.088691 0.964641
v -0.238228 0.072758 0.891274
v -0.706392 -0.102379 0.705917
v -0.651327 0.075239 0.653091
v -0.965464 -0.095900 0.257823
v -0.889986 0.081208 0.240302
v -0.965759 -0.087372 -0.259745
v -0.890257 0.089064 -0.236485
v -0.707196 -0.079079 -0.708104
v -0.652067 0.096703 -0.649517
v -0.259058 -0.073245 -0.967117
v -0.239239 0.102078 -0.888122
v 0.706392 0.102379 -0.705917
v 0.257960 0.105073 -0.964472
v 0.965464 0.095900 -0.257823
v 0.965759 0.087372 0.259745
v 0.707196 0.079079 0.708104
v 0.080577 0.056864 0.966948
v -0.079987 0.056301 0.967030
v -0.707009 0.074126 0.708826
v -0.966081 0.080605 0.260731
v -0.966375 0.089134 -0.256836
v -0.707812 0.097426 -0.705195
v -0.259675 0.103260 -0.964208
v 0.651011 0.015264 -0.651599
v 0.237911 0.017746 -0.889782
v 0.889670 0.009295 -0.238811
v 0.889941 0.001439 0.237977
v 0.651751 -0.006200 0.651009
v 0.238922 -0.011574 0.889613
v -0.237927 -0.013244 0.889857
v -0.651026 -0.010763 0.651674
v -0.889686 -0.004794 0.238885
v -0.889957 0.003062 -0.237902
v -0.651766 0.010701 -0.650934
v -0.238938 0.016076 -0.889539
v 0.259058 0.073245 0.967117
v 0.259675 -0.103260 0.964208
v -0.257960 -0.105073 0.964472
v -0.258577 0.071432 0.967381
v 0.081106 0.041520 1.898142
v 0.028156 0.035784 1.951082
v 0.028630 -0.099854 1.948847
v 0.081613 -0.103473 1.895752
v -0.025941 -0.100045 1.948874
v -0.078951 -0.104035 1.895834
v -0.079458 0.040957 1.898224
v -0.026414 0.035593 1.951109
vn 0.4995 0.0160 -0.8662
vn 0.8657 0.0113 -0.5004
vn 1.0000 0.0035 -0.0005
vn 0.8663 -0.0052 0.4995
vn 0.5005 -0.0125 0.8657
vn 0.0035 -0.9999 -0.0165
vn -0.4995 -0.0160 0.8662
vn -0.8657 -0.0113 0.5004
vn -1.0000 -0.0035 0.0005
vn -0.8663 0.0052 -0.4995
vn -0.5005 0.0125 -0.8657
vn -0.0006 0.0165 -0.9999
vn -0.0035 0.9999 0.0165
vn 0.0006 -0.0165 0.9999
vn 0.7075 -0.0092 0.7066
vn 0.0035 -0.9974 0.0715
vn -0.0034 0.9945 0.1043
vn -0.7067 -0.0141 0.7074
vt 0.414062 0.562500
vt 0.003500 0.457507
vt 0.016391 0.207503
vt 0.832031 0.796875
vt 0.335938 0.562500
vt 0.578125 0.753906
vt 0.047341 0.381573
vt 0.056778 0.277454
vt 0.832031 0.507812
vt 0.832031 0.828125
vt 0.500000 0.753906
vt 0.123275 0.337732
vt 0.126729 0.317841
vt 0.832031 0.542969
vt 0.414062 0.753906
vt 0.210957 0.337732
vt 0.207503 0.317841
vt 0.832031 0.578125
vt 0.335938 0.753906
vt 0.578125 0.875000
vt 0.286892 0.381573
vt 0.832031 0.617188
vt 0.277454 0.277454
vt 0.832031 0.613281
vt 0.179688 0.863281
vt 0.378906 0.894531
vt 0.085938 0.714844
vt 0.317841 0.207503
vt 0.832031 0.648438
vt 0.199219 0.863281
vt 0.355469 0.894531
vt 0.039062 0.804688
vt 0.317841 0.126729
vt 0.832031 0.687500
vt 0.335938 0.660156
vt 0.578125 0.660156
vt 0.286892 0.621124
vt 0.277454 0.056778
vt 0.832031 0.718750
vt 0.832031 0.832031
vt 0.500000 0.660156
vt 0.210957 0.664965
vt 0.207503 0.016391
vt 0.832031 0.859375
vt 0.414062 0.660156
vt 0.123275 0.664965
vt 0.126729 0.016391
vt 0.832031 0.886719
vt 0.335938 0.660156
vt 0.578125 0.562500
vt 0.047341 0.621124
vt 0.056778 0.056778
vt 0.832031 0.914062
vt 0.832031 0.722656
vt 0.500000 0.562500
vt 0.003500 0.545189
vt 0.016391 0.126729
vt 0.832031 0.757812
vt 0.335938 0.648438
vt 0.578125 0.839844
vt 0.047341 0.286892
vt 0.414062 0.648438
vt 0.003500 0.210957
vt 0.500000 0.839844
vt 0.123275 0.330732
vt 0.414062 0.839844
vt 0.210957 0.330732
vt 0.335938 0.839844
vt 0.578125 0.960938
vt 0.286892 0.286892
vt 0.378906 0.941406
vt 0.222656 0.863281
vt 0.085938 0.800781
vt 0.355469 0.941406
vt 0.203125 0.863281
vt 0.039062 0.890625
vt 0.335938 0.746094
vt 0.578125 0.746094
vt 0.286892 0.047340
vt 0.500000 0.746094
vt 0.210957 0.003500
vt 0.414062 0.746094
vt 0.123275 0.003500
vt 0.335938 0.746094
vt 0.578125 0.648438
vt 0.047340 0.047341
vt 0.500000 0.648438
vt 0.003500 0.123275
vt 0.737493 0.043886
vt 0.996094 0.507812
vt 0.996094 0.828125
vt 0.807445 0.003500
vt 0.996094 0.796875
vt 0.697107 0.113838
vt 0.996094 0.542969
vt 0.697107 0.194611
vt 0.996094 0.578125
vt 0.996094 0.617188
vt 0.737493 0.264563
vt 0.996094 0.613281
vt 0.807445 0.304949
vt 0.996094 0.648438
vt 0.888218 0.304949
vt 0.996094 0.687500
vt 0.958170 0.264563
vt 0.996094 0.718750
vt 0.996094 0.832031
vt 0.998556 0.194611
vt 0.996094 0.859375
vt 0.998556 0.113838
vt 0.996094 0.886719
vt 0.958170 0.043886
vt 0.996094 0.914062
vt 0.996094 0.722656
vt 0.888218 0.003500
vt 0.996094 0.757812
vt 0.500000 0.960938
vt 0.330732 0.210957
vt 0.406250 0.960938
vt 0.500000 0.875000
vt 0.330732 0.457507
vt 0.406250 0.875000
vt 0.414062 0.660156
vt 0.330732 0.545189
vt 0.328125 0.875000
vt 0.414062 0.746094
vt 0.330732 0.123275
vt 0.328125 0.960938
vt 0.156250 0.890625
vt 0.222656 0.746094
vt 0.039062 0.800781
vt 0.152344 0.886719
vt 0.214844 0.738281
vt 0.152344 0.734375
vt 0.187500 0.738281
vt 0.156250 0.730469
vt 0.179688 0.746094
vt 0.039062 0.714844
vt 0.191406 0.738281
vt 0.144531 0.734375
vt 0.085938 0.804688
vt 0.199219 0.746094
vt 0.140625 0.730469
vt 0.085938 0.890625
vt 0.203125 0.746094
vt 0.140625 0.890625
vt 0.210938 0.738281
vt 0.144531 0.886719
s 1
f 1/1/1 26/62/1 25/59/1 3/5/1
f 3/6/2 25/60/2 27/64/2 5/11/2
f 5/11/3 27/64/3 28/66/3 7/15/3
f 7/15/4 28/66/4 29/68/4 9/19/4
f 9/20/5 29/69/5 49/117/5 50/120/5
f 13/30/6 11/25/6 56/137/6 58/142/6
f 51/123/7 52/126/7 32/77/7 15/35/7
f 15/36/8 32/78/8 33/80/8 17/41/8
f 17/41/9 33/80/9 34/82/9 19/45/9
f 19/45/10 34/82/10 35/84/10 21/49/10
f 12/29/11 10/22/11 41/98/11 42/102/11
f 21/50/11 35/85/11 36/87/11 23/55/11
f 23/55/12 36/87/12 26/62/12 1/1/12
f 1/2/6 3/7/6 5/12/6 7/16/6 9/21/6 50/121/6 51/124/6 15/37/6 17/42/6 19/46/6 21/51/6 23/56/6
f 2/3/13 4/8/13 25/61/13 26/63/13
f 4/8/13 6/13/13 27/65/13 25/61/13
f 6/13/13 8/17/13 28/67/13 27/65/13
f 8/17/13 10/23/13 29/70/13 28/67/13
f 10/23/13 12/28/13 49/118/13 29/70/13
f 12/28/13 14/33/13 52/127/13 49/118/13
f 14/33/13 16/38/13 32/79/13 52/127/13
f 16/38/13 18/43/13 33/81/13 32/79/13
f 18/43/13 20/47/13 34/83/13 33/81/13
f 20/47/13 22/52/13 35/86/13 34/83/13
f 22/52/13 24/57/13 36/88/13 35/86/13
f 24/57/13 2/3/13 26/63/13 36/88/13
f 37/89/13 38/92/13 48/115/13 47/112/13 46/110/13 45/108/13 44/105/13 43/103/13 42/101/13 41/99/13 40/96/13 39/94/13
f 2/4/14 24/58/14 48/116/14 38/93/14
f 6/14/8 4/9/8 37/90/8 39/95/8
f 20/48/3 18/44/3 45/109/3 46/111/3
f 14/34/12 12/29/12 42/102/12 43/104/12
f 8/18/9 6/14/9 39/95/9 40/97/9
f 22/53/4 20/48/4 46/111/4 47/113/4
f 16/39/1 14/34/1 43/104/1 44/106/1
f 10/24/10 8/18/10 40/97/10 41/100/10
f 24/58/5 22/54/5 47/114/5 48/116/5
f 4/10/7 2/4/7 38/93/7 37/91/7
f 18/44/2 16/40/2 44/107/2 45/109/2
f 30/71/14 11/26/14 50/122/14 49/119/14
f 11/26/14 13/31/14 51/125/14 50/122/14
f 31/74/14 30/71/14 49/119/14 52/128/14
f 13/31/14 31/74/14 52/128/14 51/125/14
f 30/72/13 31/75/13 59/145/13 53/130/13
f 55/134/14 54/132/14 60/148/14 57/140/14
f 31/76/9 13/32/9 58/141/9 59/144/9
f 54/132/15 55/134/15 56/136/15 53/129/15
f 55/135/16 57/139/16 58/142/16 56/137/16
f 60/147/17 54/133/17 53/130/17 59/145/17
f 59/146/18 58/143/18 57/140/18 60/148/18
f 11/27/3 30/73/3 53/131/3 56/138/3
